<svg id="Layer_1" data-name="Layer 1" xmlns="http://www.w3.org/2000/svg" viewBox="0 0 1000 100"><defs><style>.cls-1,.cls-2,.cls-3{fill:#fff;}.cls-1{opacity:0.33;}.cls-1,.cls-2{isolation:isolate;}.cls-2{opacity:0.66;}</style></defs><title>footer-wavy-swirl</title><path class="cls-1" d="M473,67.3c-203.9,88.3-263.1-34-320.3,0C66,119.1,0,59.7,0,59.7V0H1000V59.7S937.9,85.8,905.1,89s-62.8-12.3-75.8-22.1C806,49.6,745.3,8.7,694.9,4.7S492.4,59,473,67.3Z" transform="translate(0 0)"/><path class="cls-2" d="M734,67.3c-45.5,0-77.2-23.2-129.1-39.1-28.6-8.7-150.3-10.1-254,39.1s-91.7-34.4-149.2,0C115.7,118.3,0,39.8,0,39.8V0H1000V36.5S971.8,18,907.9,18C810.2,18.1,775.7,67.3,734,67.3Z" transform="translate(0 0)"/><path class="cls-3" d="M766.1,28.9c-200-57.5-266,65.5-395.1,19.5C242,1.8,242,5.4,184.8,20.6,128,35.8,132.3,44.9,89.9,52.5,28.6,63.7,0,0,0,0H1000s-9.9,40.9-83.6,48.1S829.6,47,766.1,28.9Z" transform="translate(0 0)"/></svg>