<svg height="511pt" viewBox="0 -6 511.99958 511" width="511pt" xmlns="http://www.w3.org/2000/svg"><path d="m124.953125 422.539062c-6.65625 6.660157-6.65625 17.457032.007813 24.117188 6.660156 6.65625 17.457031 6.65625 24.113281-.003906s6.65625-17.453125 0-24.113282c-6.65625-6.660156-17.453125-6.660156-24.113281-.003906-.003907 0-.003907.003906-.007813.003906zm0 0"/><path d="m494.945312 373.699219v-332.609375c7.480469-10.148438 6.390626-24.242188-2.554687-33.117188-9.984375-9.964844-26.152344-9.964844-36.136719 0l-319.234375 318.117188-6.035156-6.027344-30.140625 30.140625-12.058594-12.046875c-13.167968-13.46875-34.761718-13.714844-48.226562-.546875-13.46875 13.167969-13.714844 34.761719-.546875 48.230469.179687.179687.359375.363281.539062.539062l12.058594 12.058594-42.199219 42.203125c-13.546875 13.085937-13.921875 34.675781-.835937 48.226563 13.085937 13.546874 34.675781 13.921874 48.226562.835937.28125-.273437.5625-.554687.835938-.835937l32.238281-32.230469c12.140625 25.484375 42.644531 36.304687 68.128906 24.164062 5.1875-2.472656 9.917969-5.796875 13.996094-9.839843h.050781l39.511719-37.667969c41.976562-39.882813 62.007812-97.644531 53.734375-154.953125h36.269531c54.421875-.058594 98.523438-44.160156 98.589844-98.578125v-37.839844h7.988281c33.242188-.035156 60.183594-26.972656 60.222657-60.214844v-14.578125l8.527343-8.527344v315.097657c-10.183593 3.601562-17.007812 13.210937-17.054687 24.011719v8.527343c.046875 10.800781 6.871094 20.410157 17.054687 24.007813v18.621094c0 4.710937-3.816406 8.527343-8.527343 8.527343-4.707032 0-8.527344-3.816406-8.527344-8.527343v-8.523438h-17.050782v8.523438c0 14.128906 11.453126 25.582031 25.578126 25.582031 14.128906 0 25.578124-11.453125 25.578124-25.582031v-18.621094c10.183594-3.597656 17.007813-13.207032 17.054688-24.007813v-8.527343c-.046875-10.800782-6.871094-20.410157-17.054688-24.011719zm-297.566406-83.710938 11.933594 11.9375-48.171875 48.269531-12.054687-12.058593zm-66.414062 54.167969 24.128906 24.121094-15.441406 15.433594c-1.765625-.09375-3.539063-.09375-5.308594 0l-21.445312-21.46875zm-44.976563 93.238281-39.40625 39.398438c-6.746093 6.445312-17.367187 6.445312-24.113281 0-6.65625-6.660157-6.65625-17.453125 0-24.113281l42.195312-42.179688 21.316407 21.316406c0 .9375-.128907 1.859375-.128907 2.796875s.09375 1.851563.136719 2.78125zm4.894531-24.820312-38.273437-38.269531c-6.660156-6.660157-6.65625-17.457032.003906-24.113282 6.660157-6.660156 17.457031-6.660156 24.117188.003906l38.367187 38.367188c-10.683594 4.847656-19.285156 13.359375-24.242187 23.992188zm70.257813 46.132812c-13.503906 12.875-34.738281 12.875-48.242187 0-13.316407-13.320312-13.3125-34.914062.007812-48.230469 13.324219-13.316406 34.917969-13.3125 48.234375.007813 13.3125 13.320313 13.3125 34.90625 0 48.222656zm39.648437-37.804687-12.789062 12.191406c-.28125-19.210938-11.609375-36.539062-29.09375-44.503906l20.308594-20.3125-6.019532-6.019532 76.816407-76.550781c5.679687 50.289063-12.539063 100.332031-49.222657 135.195313zm183.316407-241.140625c-.058594 45.003906-36.53125 81.476562-81.539063 81.527343h-28.035156l109.574219-109.195312zm27.574219-55.148438 40.363281-40.21875c-1.363281 21.675781-18.679688 38.933594-40.363281 40.21875zm-190.136719 165.410157-12.066407-12.066407 258.851563-257.964843c3.363281-3.292969 8.761719-3.242188 12.058594.121093 1.550781 1.585938 2.425781 3.714844 2.4375 5.933594.007812 2.265625-.894531 4.4375-2.507813 6.027344zm273.402343 116.214843c0 4.707031-3.816406 8.527344-8.523437 8.527344-4.710937 0-8.527344-3.820313-8.527344-8.527344v-8.527343c0-4.707032 3.816407-8.527344 8.527344-8.527344 4.707031 0 8.523437 3.820312 8.523437 8.527344zm0 0"/></svg>