<?xml version="1.0" encoding="utf-8"?>
<!-- Generator: Adobe Illustrator 23.0.2, SVG Export Plug-In . SVG Version: 6.00 Build 0)  -->
<svg version="1.1" id="Layer_1" xmlns="http://www.w3.org/2000/svg" xmlns:xlink="http://www.w3.org/1999/xlink" x="0px" y="0px"
	 viewBox="0 0 321.7 512" style="enable-background:new 0 0 321.7 512;" xml:space="preserve">
<style type="text/css">
	.st0{fill:#444444;}
</style>
<g>
	<g>
		<circle class="st0" cx="213.3" cy="42.1" r="42.1"/>
	</g>
</g>
<g>
	<g>
		<path class="st0" d="M281.3,281.2c1.5,9.3,9.4,16.6,19.2,17c11.2,0.5,20.7-8.2,21.2-19.5l-3.2-115.9l-2.5-18.8
			c-0.9-25.7-22.2-46.4-48.1-46.4c-13.3,0-96,0-109.4,0c-26.5,0-48.1,21.5-48.3,48v45.9l-28.1,3.3V48.5c0-6.4-5.2-11.5-11.5-11.5
			s-11.5,5.2-11.5,11.5v23.8C50,75.8,41.9,83.4,35.6,94.8c-7.7,13.9-12,32.1-12,51.4s4.3,37.5,12,51.4c1.5,2.7,3.1,5.2,4.9,7.5
			c-3.7,4.2-5.6,9.8-4.9,15.7c0.3,2.7,1.2,5.3,2.4,7.5c-10.2,15.7-14.4,36.3-14.4,55.3c0,19.2,4.3,37.5,12,51.4
			c3.8,6.8,8.3,12.3,13.2,16.4c-4.1-1.6-8.5-2.5-13.1-2.5C16,348.8,0,364.8,0,384.5s16,35.7,35.7,35.7c9,0,17.2-3.4,23.5-8.9v76.4
			c0,6.4,5.2,11.5,11.5,11.5s11.5-5.2,11.5-11.5V235.8l50.8-5.9c10.2-1.2,18-9.9,18-20.2v-63.8c0-2.3,1.9-4.1,4.1-4.1
			c2.3,0,4.1,1.8,4.1,4.1l0,341.8c0,13.5,10.9,24.4,24.4,24.4s24.4-10.9,24.4-24.4v-195h10.5v195c0,13.5,10.9,24.4,24.4,24.4
			s24.4-10.9,24.4-24.4c0,0-0.4-180.7-0.4-341.5c0-1.9,1.3-3.6,3.1-4.1c1.8-0.5,3.8,0.2,4.8,1.8c0.4,0.6,0.6,1.3,0.6,1.9
			c0,1.8-0.5-2.3,8.2,63.4L281.3,281.2z M35.7,398.4c-7.7,0-14-6.3-14-14c0-7.7,6.3-14,14-14s14,6.3,14,14
			C49.6,392.2,43.4,398.4,35.7,398.4z M59.2,331.2c-7.7-9.1-13.9-26.5-13.9-47.7c0-19.1,5.1-35.3,11.8-44.9c0.8-0.1,1.2-0.1,2.1-0.2
			L59.2,331.2L59.2,331.2z M59.2,193.8c-7.7-9.1-13.9-26.5-13.9-47.7s6.2-38.6,13.9-47.7V193.8z"/>
	</g>
</g>
</svg>
