<?xml version="1.0" encoding="utf-8"?>
<!-- Generator: Adobe Illustrator 23.0.2, SVG Export Plug-In . SVG Version: 6.00 Build 0)  -->
<svg version="1.1" id="Layer_1" xmlns="http://www.w3.org/2000/svg" xmlns:xlink="http://www.w3.org/1999/xlink" x="0px" y="0px"
	 viewBox="0 0 496 496" style="enable-background:new 0 0 496 496;" xml:space="preserve">
<path d="M432,160V80h-32V0H32v456c0,22.1,17.9,40,40,40h352c22.1,0,40-17.9,40-40V160H432z M72,480c-13.2,0-24-10.8-24-24V16h336
	v440c0,9,3,17.3,8,24H72z M448,456c0,13.2-10.8,24-24,24s-24-10.8-24-24V96h16v336h16V176h16V456z"/>
<path d="M416,448h16v16h-16V448z"/>
<path d="M145,465h224V241H145V465z M161,257h192v192H161V257z"/>
<path d="M257,413.2c33.2,0,60.2-27,60.2-60.2s-27-60.2-60.2-60.2s-60.2,27-60.2,60.2S223.8,413.2,257,413.2z M257,403.2
	c-20.5,0-38.1-12.3-45.9-29.9c6,0.4,11.7,2.9,16,7.2l1,1c4.3,4.3,10,6.7,16.1,6.7c12.5,0,22.8-10.2,22.8-22.8v-4.8
	c0-9.7-7.9-17.6-17.6-17.6c-4.2,0-7.5-3.4-7.5-7.5v-7.5c0-7.2-2.3-14.3-6.5-20.2c5.2-2.5,10.8-4.1,16.8-4.7
	c-0.1,1.1-0.3,2.3-0.3,3.4c0,8.8,3.9,17,10.8,22.4l8.6,6.8c3.7,2.9,5.8,7.3,5.8,12c0,14,11.4,25.4,25.4,25.4c0.2,0,0.4,0,0.6,0
	C295.2,390.8,277.5,403.2,257,403.2z M307.2,353c0,3.3-0.3,6.6-1,9.7c-1.3,0.2-2.5,0.3-3.8,0.3c-8.5,0-15.3-6.9-15.3-15.3
	c0-7.7-3.5-15-9.5-19.8l-8.6-6.8c-4.5-3.6-7-8.9-7-14.6c0-1.1,0.1-2.2,0.3-3.4C287.5,305.8,307.2,327.1,307.2,353z M226.9,312.9
	c3.2,4.3,5,9.6,5,15v7.5c0,9.7,7.9,17.6,17.6,17.6c4.2,0,7.5,3.4,7.5,7.5v4.8c0,7-5.7,12.7-12.7,12.7c-3.4,0-6.6-1.3-9-3.7l-1-1
	c-6.6-6.6-15.5-10.3-24.8-10.3c-0.5,0-1.1-0.1-1.6-0.1c-0.6-3.2-1-6.5-1-9.9C206.8,336.6,214.8,322.1,226.9,312.9z"/>
<path d="M212,32h156v16H212V32z"/>
<path d="M212,64h76v16h-76V64z"/>
<path d="M304,64h64v16h-64V64z"/>
<path d="M212,96h156v16H212V96z"/>
<path d="M212,128h156v16H212V128z"/>
<path d="M152,160h184v16H152V160z"/>
<path d="M57.9,185.6l311-0.1l0,16l-311,0.1L57.9,185.6z"/>
<path d="M59,160h81v16H59V160z"/>
<path d="M352,160h16v16h-16V160z"/>
<path d="M64,440h64v16H64V440z"/>
<path d="M64,408h64v16H64V408z"/>
<path d="M64,376h64v16H64V376z"/>
<path d="M64,344h64v16H64V344z"/>
<path d="M64,312h64v16H64V312z"/>
<g>
	<g>
		<g>
			<path d="M194,92.7c-5.5-4.9-12.8-9.1-20.7-11.8c0,0,0,0,0,0c0,0,0,0,0,0c-3.6-1.3-7.4-2.2-11.1-2.8c-2.2-2.7-9.5-10.4-22.2-13.4
				c-2.1-0.5-4.3,0-6,1.3c-1.7,1.4-2.7,3.4-2.7,5.6v10.1c-11.9,5.2-21.3,13.8-26.4,19c-0.8-3.8-2.4-8.6-6.1-12.3
				c-7-7-18.4-6.7-18.8-6.7c-1.4,0-2.5,1.2-2.5,2.6c0,0.5-0.3,11.8,6.7,18.8c1.7,1.7,3.7,3,5.8,4c-2,1-4,2.3-5.8,4
				c-7,7-6.7,18.4-6.7,18.8c0,1.4,1.2,2.5,2.5,2.6c0,0,0.2,0,0.4,0c2.2,0,12.1-0.4,18.4-6.7c3.7-3.7,5.4-8.7,6.1-12.5
				c3.7,3.8,9.8,9.4,17.4,14.2v9.2c0,2.3,1,4.3,2.9,5.7c1.2,0.9,2.7,1.4,4.2,1.4c0.7,0,1.4-0.1,2.1-0.3c6.4-1.9,11.2-5.4,13.5-7.2
				c2.2,0.3,4.3,0.5,6.4,0.5c7.2,0,14.4-1.2,21.4-3.6c0,0,0,0,0,0c16.4-5.6,29.7-17.3,29.7-26.1C202.5,102.6,199.4,97.6,194,92.7z
				 M87.9,99.2c-3.6-3.6-4.7-9-5-12.3c3.2,0.3,8.6,1.4,12.2,5.1c3.6,3.6,4.7,8.9,5,12.1C96.9,103.8,91.5,102.8,87.9,99.2z
				 M95.1,121.8c-3.6,3.6-9,4.7-12.2,5c0.3-3.2,1.4-8.6,5-12.2c3.6-3.6,9.1-4.7,12.3-5C99.8,112.8,98.7,118.2,95.1,121.8z
				 M136.6,71.5c0-0.6,0.3-1.1,0.7-1.4c0.3-0.2,0.8-0.5,1.5-0.3c6.7,1.5,11.7,4.7,15,7.4c-0.8,0-1.6,0-2.4,0
				c-4.8,0-9.8,0.8-14.8,2.5V71.5z M130,138.2c-0.6,0.2-1.1,0.1-1.6-0.3c-0.3-0.2-0.7-0.7-0.7-1.5v-6.2c3.5,1.8,7,3.2,10.4,4.2
				C135.9,135.8,133.2,137.3,130,138.2z M151.4,131.3c-2.2,0-4.5-0.2-6.7-0.6c-5.9-1-12.1-3.4-18.3-7.1c-9.7-5.8-17.1-13.4-20-16.7
				c3.8-4.2,14.6-15.4,28.6-21c0,0,0,0,0.1,0c5.6-2.3,11.1-3.4,16.4-3.4c3,0,6,0.2,9,0.7c2.3,0.3,4.6,0.8,6.8,1.4
				c-5.5,5.9-9.1,14.5-9.1,22.9c0,7.7,3.4,15.9,8.7,21.8C161.7,130.6,156.5,131.3,151.4,131.3z M172.5,127.4c-5.5-5-9.1-12.8-9.1-20
				c0-7.9,3.9-16.3,9.5-21.1c15.1,5.6,24.3,15.6,24.3,20.5C197.2,111.8,187.8,121.8,172.5,127.4z"/>
		</g>
	</g>
	<g>
		<g>
			<path d="M182.2,103.6c-1.5,0-2.6,1.2-2.6,2.6v1.2c0,1.5,1.2,2.6,2.6,2.6c1.5,0,2.6-1.2,2.6-2.6v-1.2
				C184.9,104.8,183.7,103.6,182.2,103.6z"/>
		</g>
	</g>
	<g>
		<g>
			<path d="M154.9,89.1c-1.1-1-2.7-1-3.7,0.1c-0.3,0.3-0.5,0.5-0.7,0.8c-0.9,1.1-0.8,2.8,0.3,3.7c0.5,0.4,1.1,0.6,1.7,0.6
				c0.8,0,1.5-0.3,2-0.9c0.2-0.2,0.4-0.4,0.5-0.6C156,91.7,156,90.1,154.9,89.1z"/>
		</g>
	</g>
	<g>
		<g>
			<path d="M154.6,121.3c-2.9-3.4-4.6-8.5-4.6-14.1c0-3.1,0.5-6.2,1.6-8.8c0.5-1.4-0.2-2.9-1.5-3.4c-1.4-0.5-2.9,0.2-3.4,1.5
				c-1.3,3.3-1.9,7-1.9,10.7c0,6.8,2.2,13.2,5.9,17.5c0.5,0.6,1.3,0.9,2,0.9c0.6,0,1.2-0.2,1.7-0.6
				C155.4,124.1,155.6,122.4,154.6,121.3z"/>
		</g>
	</g>
</g>
</svg>
