<?xml version="1.0" encoding="utf-8"?>
<!-- Generator: Adobe Illustrator 23.0.1, SVG Export Plug-In . SVG Version: 6.00 Build 0)  -->
<svg version="1.1" id="Layer_1" xmlns="http://www.w3.org/2000/svg" xmlns:xlink="http://www.w3.org/1999/xlink" x="0px" y="0px"
	 viewBox="0 0 512 512" style="enable-background:new 0 0 512 512;" xml:space="preserve">
<path d="M476.2,363.6c0,4.1-3.4,7.5-7.5,7.5s-7.5-3.4-7.5-7.5c0-4.1,3.4-7.5,7.5-7.5S476.2,359.4,476.2,363.6z"/>
<path d="M498.4,465.6c0-10.5-3.9-23.1-10.3-33.6c14.8-17.2,23.9-44.2,23.9-61.7c0-21.5-12.7-40.1-30.9-48.7l0-129.1
	c17.2-20.9,26.5-46.8,26.5-74.2c0-24.7-7.5-48-21.7-67.8c6.8-9.9,5.8-23.5-3-32.2c-9.9-9.9-25.9-9.9-35.8,0L159.9,305.7
	c-13.6-5.3-29.7-2.5-40.6,8.5l-72.8,72.8c-2.9,2.9-2.9,7.7,0,10.6c2.9,2.9,7.7,2.9,10.6,0l72.8-72.8c8.9-8.9,23.5-8.9,32.4,0
	l14.4,14.4c8.9,8.9,8.9,23.5,0,32.4l-6.4,6.4c-21.2-11.9-48.6-8.8-66.6,9.2c-18,18-21.1,45.4-9.2,66.6l-26,26
	c-8.9,8.9-23.5,8.9-32.4,0l-14.4-14.4c-8.9-8.9-8.9-23.4,0-32.4l13.7-13.7c2.9-2.9,2.9-7.7,0-10.6s-7.7-2.9-10.6,0l-13.7,13.7
	c-14.8,14.8-14.8,38.8,0,53.6l14.4,14.4c14.8,14.8,38.8,14.8,53.6,0l24.5-24.5c0,0,0.1,0.1,0.1,0.1c14.3,14.3,34.9,19.6,54.1,14.4
	c0,0,22.5,23.7,42.7,3.5s-3.6-42.7-3.6-42.7c5.2-19.1-0.2-39.9-14.4-54.1c0,0-0.1-0.1-0.1-0.1l4.9-4.9c8.2-8.2,11.8-19.3,10.9-30
	c17.9,10.7,38.2,16.2,59.5,16.2c9.1,0,18.2-1.1,27-3.1c4-1,6.5-5,5.6-9c-0.9-4-5-6.5-9-5.6c-7.7,1.8-15.6,2.7-23.6,2.7
	c-20.5,0-40-5.9-56.7-17.2l11.4-11.4c13.6,8.4,29.1,12.8,45.3,12.8c23,0,44.7-9,61-25.2c14.6-14.6,23.5-34,25-54.6
	c1.3-18.2-3.1-36.3-12.6-51.6l14.4-14.4c13.6,8.4,29.1,12.8,45.3,12.8c23,0,44.7-9,61-25.2c16.3-16.3,25.2-37.9,25.2-61
	c0-16.2-4.4-31.8-12.8-45.3l11.4-11.4c11.3,16.7,17.2,36.1,17.2,56.7c0,27.2-10.6,52.8-29.8,72.1c-19.2,19.2-44.8,29.8-72,29.8
	c-8.5,0-17-1.1-25.2-3.1c-2.6-0.6-5.3,0.1-7.1,2s-2.6,4.6-2,7.1c8.8,34.7-1.4,72-26.7,97.2c-6.7,6.7-14.3,12.5-22.5,17
	c-3.6,2-5.1,6.7-2.9,10.2c2.7,4.4,7.2,4.6,10.2,2.9c9.4-5.3,18.1-11.8,25.8-19.5c26.2-26.2,38.3-63.7,32.9-100.1
	c5.8,0.9,11.6,1.3,17.5,1.3c15.6,0,30.7-3,44.7-8.8v95.1c-18.3,8.6-30.9,27.2-30.9,48.7c0,17.5,9.1,44.5,23.9,61.7
	c-6.3,10.4-10.3,23.1-10.3,33.6c0,8.6,4.6,18.9,14.3,22.9c7.3,3,44.2,2.9,51.6,0C490.6,485.9,498.4,479.9,498.4,465.6z M189.8,473.2
	c-4.9,4.9-13,4.9-17.9,0l-27-27c-4.9-4.9-4.9-13,0-17.9c4.9-4.9,13-4.9,17.9,0l27,27C194.7,460.3,194.7,468.3,189.8,473.2z
	 M183.7,428.1l-10.3-10.3c-10.8-10.8-28.3-10.8-39.1,0s-10.8,28.3,0,39.1l10.4,10.4c-11.1,0.4-22.2-3.7-30.4-11.9
	c-15.9-15.9-15.9-41.7,0-57.6c15.9-15.9,41.7-15.9,57.6,0C180,405.8,184.1,416.9,183.7,428.1z M344.6,171.4l-33.9,33.9L296,190.7
	l33.9-33.9L344.6,171.4z M340.6,146.2L419,67.8l14.6,14.6l-78.4,78.4L340.6,146.2z M300,215.9l-78.4,78.4L207,279.7l78.4-78.4
	L300,215.9z M472.4,29c4,4,4,10.6,0,14.6l-28.1,28.1l-14.6-14.6L457.8,29C461.8,25,468.3,25,472.4,29z M172.9,314.1
	c0,0-0.1-0.1-0.1-0.1l23.7-23.7L211,305l-23.7,23.7c0,0-0.1-0.1-0.1-0.1L172.9,314.1z M328.7,256.7c-1.2,17-8.6,33.1-20.6,45.1
	c-13.4,13.4-31.3,20.9-50.3,20.9c-12.2,0-23.9-3-34.4-8.8l96.7-96.7C326.6,229.1,329.7,242.8,328.7,256.7z M390.7,189.6
	c-12.2,0-23.9-3-34.4-8.8l79-79v72.1C422.8,184.1,407.2,189.6,390.7,189.6z M461.9,118.4c0.4,14-4,27.4-11.5,38.9V86.8
	C450.4,86.8,461.2,94.9,461.9,118.4z M450.4,219c5.5-3.3,10.7-7,15.7-11.2v109.3c-2.6-0.4-13.1-0.4-15.7,0V219z M458.2,331.6
	c10.7,0,20.4,4.3,27.4,11.4c7,7,11.4,16.7,11.4,27.4c0,23.1-19.2,62.9-38.8,62.9s-38.8-39.8-38.8-62.9
	C419.5,349,436.8,331.6,458.2,331.6z M458.2,476.3c-22.7,0-25.1-2.2-25.1-10.7c0-6.9,2.6-15.7,6.7-23.3c5.7,3.7,11.8,5.9,18.4,5.9
	s12.8-2.2,18.4-5.9c4.1,7.6,6.7,16.4,6.7,23.3C483.4,474.2,480.9,476.3,458.2,476.3z"/>
</svg>
