<?xml version="1.0" encoding="utf-8"?>
<!-- Generator: Adobe Illustrator 23.0.1, SVG Export Plug-In . SVG Version: 6.00 Build 0)  -->
<svg version="1.1" id="Capa_1" xmlns="http://www.w3.org/2000/svg" xmlns:xlink="http://www.w3.org/1999/xlink" x="0px" y="0px"
	 viewBox="0 0 480 480" style="enable-background:new 0 0 480 480;" xml:space="preserve">
<g>
	<g>
		<path d="M412,16h-24V8c0-4.4-3.6-8-8-8s-8,3.6-8,8v8h-16V8c0-4.4-3.6-8-8-8s-8,3.6-8,8v8h-16V8c0-4.4-3.6-8-8-8s-8,3.6-8,8v8h-16
			V8c0-4.4-3.6-8-8-8s-8,3.6-8,8v8H164V8c0-4.4-3.6-8-8-8s-8,3.6-8,8v8h-16V8c0-4.4-3.6-8-8-8s-8,3.6-8,8v8h-16V8c0-4.4-3.6-8-8-8
			s-8,3.6-8,8v8H68V8c0-4.4-3.6-8-8-8s-8,3.6-8,8v8H28c-4.4,0-8,3.6-8,8v376c0,4.4,3.6,8,8,8h232.4c4.4,0,8-3.6,8-8
			c0-0.2,0-0.4,0-0.6l-0.1-0.9c-0.2-2.2-0.3-4.3-0.3-6.5c0-7.9,1-15.8,2.8-23.5c1.8-7.7,4.4-15.1,7.9-22.2c0.3-0.7,0.7-1.4,1-2.1
			c1.1-2,2.2-4,3.4-6c0.4-0.6,0.7-1.2,1.1-1.9c1.3-2,2.7-4,4.1-5.9c0.3-0.4,0.6-0.8,0.9-1.2c1.6-2.1,3.3-4.1,5-6.1l0.2-0.3
			c11.4-12.8,25.8-22.5,41.8-28.5l1.4-0.5c2.2-0.8,4.4-1.4,6.6-2.1c1-0.3,2-0.5,3-0.8c1.9-0.5,3.8-0.9,5.7-1.3
			c1.6-0.3,3.3-0.5,4.9-0.7c1.4-0.2,2.9-0.4,4.3-0.6c3.2-0.3,6.5-0.5,9.7-0.5c2.2,0,4.3,0.2,6.4,0.3l1,0.1c0.1,0,0.1,0,0.2,0
			c10.1,0.8,20,3,29.5,6.6c4.1,1.6,8.8-0.4,10.4-4.5c0.4-0.9,0.5-1.9,0.5-2.9V24C420,19.6,416.4,16,412,16z M268.4,331.7
			c-0.3,0.5-0.6,0.9-0.8,1.3c-1.2,2-2.2,4.1-3.2,6.2c-0.6,1.2-1.1,2.3-1.7,3.5c-0.9,1.9-1.7,3.9-2.5,5.9c-0.1,0.2-0.2,0.4-0.2,0.6
			V312h22.8C277.4,318.1,272.6,324.7,268.4,331.7z M308,290.7c-2.8,1.7-5.4,3.6-8,5.6V296h-40v-48h48V290.7z M308,232h-48v-48h48
			V232z M308,168h-48v-48h48V168z M372,184v48h-48v-48H372z M324,168v-48h48v48H324z M372,272c-3.7,0-7.4,0.2-11.1,0.6
			c-1.6,0.1-3.1,0.4-4.6,0.6c-2,0.3-3.9,0.5-5.8,0.9s-4,0.8-6,1.3c-1.2,0.3-2.4,0.6-3.7,0.9c-2.4,0.7-4.8,1.4-7.2,2.2
			c-0.3,0.1-0.6,0.2-0.9,0.3c-2.9,1-5.8,2.1-8.6,3.3V248h48L372,272L372,272z M404,276.4c-5.3-1.5-10.6-2.6-16-3.3V112
			c0-4.4-3.6-8-8-8H60c-4.4,0-8,3.6-8,8v256c0,4.4,3.6,8,8,8h193.2c-0.8,5.3-1.2,10.6-1.2,16H36V88h368V276.4z M196,296v-48h48v48
			H196z M244,312v48h-48v-48H244z M196,232v-48h48v48H196z M196,168v-48h48v48H196z M132,296v-48h48v48H132z M180,312v48h-48v-48
			H180z M132,232v-48h48v48H132z M132,168v-48h48v48H132z M68,296v-48h48v48H68z M116,312v48H68v-48H116z M68,232v-48h48v48H68z
			 M68,168v-48h48v48H68z M404,72H36V32h16v8c0,4.4,3.6,8,8,8s8-3.6,8-8v-8h16v8c0,4.4,3.6,8,8,8s8-3.6,8-8v-8h16v8c0,4.4,3.6,8,8,8
			s8-3.6,8-8v-8h16v8c0,4.4,3.6,8,8,8s8-3.6,8-8v-8h112v8c0,4.4,3.6,8,8,8s8-3.6,8-8v-8h16v8c0,4.4,3.6,8,8,8s8-3.6,8-8v-8h16v8
			c0,4.4,3.6,8,8,8s8-3.6,8-8v-8h16v8c0,4.4,3.6,8,8,8s8-3.6,8-8v-8h16V72z"/>
	</g>
</g>
<g>
	<g>
		<path d="M372,304c-48.6,0-88,39.4-88,88s39.4,88,88,88s88-39.4,88-88C459.9,343.4,420.6,304.1,372,304z M372,464
			c-39.8,0-72-32.2-72-72c0-39.8,32.2-72,72-72c39.8,0,72,32.2,72,72C444,431.7,411.7,464,372,464z"/>
	</g>
</g>
<g>
	<g>
		<path d="M417.5,346.3c-3.1-3-8-3-11.1,0L372,380.7l-18.3-18.3c-3.2-3.1-8.2-3-11.3,0.2c-3,3.1-3,8,0,11.1l24,24
			c3.1,3.1,8.2,3.1,11.3,0l40-40C420.7,354.5,420.6,349.4,417.5,346.3z"/>
	</g>
</g>
</svg>
