<?xml version="1.0" encoding="utf-8"?>
<!-- Generator: Adobe Illustrator 23.0.1, SVG Export Plug-In . SVG Version: 6.00 Build 0)  -->
<svg version="1.1" id="Capa_1" xmlns="http://www.w3.org/2000/svg" xmlns:xlink="http://www.w3.org/1999/xlink" x="0px" y="0px"
	 viewBox="0 0 404.9 404.9" style="enable-background:new 0 0 404.9 404.9;" xml:space="preserve">
<g>
	<path d="M227.9,191.9C227.9,191.9,227.9,191.9,227.9,191.9c-5.8-14-21.9-20.7-36-14.9c-6.8,2.8-12.1,8.1-14.9,14.9
		c-2.8,6.8-2.8,14.3,0,21.1c2.8,6.8,8.1,12.1,14.9,14.9c3.4,1.4,7,2.1,10.5,2.1s7.1-0.7,10.5-2.1C227,222.1,233.7,205.9,227.9,191.9
		z M207.2,214c-3.1,1.3-6.5,1.3-9.6,0c-3.1-1.3-5.5-3.7-6.8-6.8c-1.3-3.1-1.3-6.5,0-9.6s3.7-5.5,6.8-6.8c1.6-0.6,3.2-1,4.8-1
		c4.9,0,9.6,2.9,11.6,7.7C216.7,204,213.6,211.4,207.2,214z"/>
	<path d="M151,78.3C117.9,92,92,117.8,78.3,151c-13.7,33.2-13.7,69.7,0,102.8c13.7,33.2,39.6,59,72.7,72.7
		c16.6,6.9,34,10.3,51.4,10.3c17.4,0,34.8-3.4,51.4-10.3c68.5-28.4,101.1-107.1,72.7-175.6C298.2,82.6,219.5,49.9,151,78.3z
		 M318.7,229.5l-62.7-26c0-0.7,0-1.4,0-2.1l62.8-26C322.9,193.5,322.7,212,318.7,229.5z M166.9,217.2c-8.1-19.6,1.2-42.2,20.8-50.3
		c4.8-2,9.8-2.9,14.7-2.9c15.1,0,29.5,9,35.6,23.8c3.9,9.5,3.9,20,0,29.5c-3.9,9.5-11.3,16.9-20.8,20.8
		C197.6,246.1,175,236.8,166.9,217.2z M92.1,248.1c-0.6-1.4-1.1-2.8-1.6-4.2l61-25.2c0.5,1.4,1,2.8,1.5,4.2c0.6,1.4,1.2,2.8,1.9,4.1
		l-61,25.2C93.3,250.9,92.7,249.5,92.1,248.1z M86.2,175.4l62.8,26c0,0.7,0,1.4,0,2.1l-62.8,26C82,211.6,82,193.2,86.2,175.4z
		 M94,152.6l61,25.3c-1.4,2.7-2.5,5.5-3.4,8.3l-61-25.3c0.5-1.4,1.1-2.8,1.6-4.2C92.7,155.4,93.3,154,94,152.6z M312.7,156.7
		c0.6,1.4,1.1,2.8,1.6,4.2l-61,25.2c-0.5-1.4-1-2.8-1.5-4.2c-0.6-1.4-1.2-2.8-1.9-4.1l61-25.3C311.5,154,312.1,155.4,312.7,156.7z
		 M218.7,151.5l25.2-60.9c2.8,1,5.6,2.2,8.3,3.4L227,154.9C224.3,153.6,221.5,152.4,218.7,151.5z M251.9,222.9
		c0.6-1.4,1.1-2.8,1.5-4.2l60.9,25.2c-1,2.8-2.2,5.6-3.4,8.3L250,227C250.6,225.7,251.3,224.3,251.9,222.9z M303.8,139.3l-62.8,26
		c-0.5-0.5-1-1-1.5-1.5l26-62.7C280.7,110.6,293.9,123.5,303.8,139.3z M229.5,86.2l-26,62.7c-0.7,0-1.4,0-2.1,0l-26-62.8
		c8.9-2.1,18-3.1,26.9-3.1C211.5,83.1,220.6,84.1,229.5,86.2z M160.9,90.5l25.2,61c-1.4,0.5-2.8,1-4.2,1.5c-1.4,0.6-2.8,1.2-4.1,1.9
		l-25.2-61c1.4-0.6,2.7-1.2,4.1-1.8C158.1,91.6,159.5,91,160.9,90.5z M139.3,101.1l26,62.8c-0.5,0.5-1,1-1.5,1.5l-62.8-26
		C110.7,123.8,123.8,110.7,139.3,101.1z M101.1,265.5l62.8-26c0.5,0.5,1,1,1.5,1.5l-26,62.8C123.8,294.1,110.7,281.1,101.1,265.5z
		 M152.6,310.9l25.2-61c1.3,0.7,2.7,1.3,4.1,1.9c1.4,0.6,2.8,1.1,4.2,1.5l-25.2,61c-1.4-0.5-2.8-1.1-4.2-1.6
		C155.4,312.1,154,311.5,152.6,310.9z M175.4,318.7l26-62.8c0.4,0,0.7,0,1.1,0c0.4,0,0.7,0,1.1,0l26,62.8
		C211.7,322.9,193.2,322.9,175.4,318.7z M243.9,314.4l-25.2-61c1.4-0.5,2.8-1,4.2-1.5c1.4-0.6,2.8-1.2,4.1-1.9l25.2,61
		c-1.4,0.6-2.7,1.2-4.1,1.8C246.7,313.3,245.3,313.8,243.9,314.4z M265.5,303.8l-26-62.8c0.5-0.5,1-1,1.5-1.5l62.7,26
		C294.3,280.7,281.4,293.9,265.5,303.8z"/>
	<path d="M392.8,260.2l-27.6-11.4c8.7-30.4,8.7-62.3,0-92.6l27.6-11.4c9.9-4.1,14.7-15.5,10.6-25.5c-2-4.8-5.7-8.6-10.6-10.6
		c-4.8-2-10.1-2-14.9,0l-27.6,11.4c-15.3-27.6-37.9-50.2-65.5-65.5L296.2,27c2-4.8,2-10.1,0-14.9c-2-4.8-5.7-8.6-10.6-10.6
		c-9.9-4.1-21.4,0.6-25.5,10.6l-11.4,27.6c-30.4-8.7-62.3-8.7-92.6,0L144.7,12c-4.1-9.9-15.5-14.7-25.5-10.6
		C109.3,5.6,104.5,17,108.7,27l11.4,27.6c-28.2,15.7-50.5,38.7-65.4,65.5L27,108.6c-4.8-2-10.1-2-14.9,0c-4.8,2-8.6,5.7-10.6,10.6
		s-2,10.1,0,14.9c2,4.8,5.7,8.6,10.6,10.6l27.7,11.5c-8.4,29.6-8.9,61.6-0.1,92.6L12,260.2c-9.9,4.1-14.7,15.5-10.6,25.5
		c3.1,7.5,10.4,12,18,12c2.5,0,5-0.5,7.4-1.5l27.6-11.4c15.3,27.6,37.9,50.2,65.5,65.5l-11.4,27.6c-4.1,9.9,0.6,21.4,10.6,25.5
		c2.4,1,5,1.5,7.4,1.5c7.7,0,14.9-4.5,18-12l11.4-27.6c15.2,4.4,30.8,6.5,46.3,6.5c15.6,0,31.1-2.2,46.3-6.5l11.4,27.6
		c2,4.8,5.7,8.6,10.6,10.6c2.4,1,4.9,1.5,7.5,1.5c2.5,0,5.1-0.5,7.5-1.5c4.8-2,8.6-5.7,10.6-10.6c2-4.8,2-10.1,0-14.9l-11.4-27.6
		c27.6-15.3,50.2-37.9,65.5-65.5l27.6,11.4c2.4,1,5,1.5,7.4,1.5c7.7,0,14.9-4.5,18-12C407.5,275.7,402.8,264.3,392.8,260.2z
		 M383.6,122.5c2.3-0.9,4.9,0.1,5.9,2.4c0.9,2.3-0.1,4.9-2.4,5.9l-26.6,11c-0.5-1.4-1.1-2.8-1.7-4.2c-0.6-1.4-1.2-2.8-1.8-4.1
		L383.6,122.5z M274.1,17.8c0.5-1.1,1.3-2,2.4-2.4s2.3-0.5,3.4,0c1.1,0.5,2,1.3,2.4,2.4c0.5,1.1,0.5,2.3,0,3.4l-11,26.6
		c-1.4-0.6-2.7-1.2-4.1-1.8c-1.4-0.6-2.8-1.1-4.2-1.7L274.1,17.8z M122.5,21.2c-0.5-1.1-0.5-2.3,0-3.4s1.3-2,2.4-2.4
		c2.3-0.9,4.9,0.1,5.9,2.4l11,26.6c-1.4,0.5-2.8,1.1-4.2,1.7c-1.4,0.6-2.8,1.2-4.1,1.8L122.5,21.2z M17.8,130.8
		c-1.1-0.5-2-1.3-2.4-2.4c-0.5-1.1-0.5-2.3,0-3.4c0.9-2.3,3.6-3.4,5.9-2.4l26.7,11.1c-1.2,2.7-2.4,5.5-3.4,8.3L17.8,130.8z
		 M21.2,282.4c-2.3,1-4.9-0.1-5.9-2.4c-0.5-1.1-0.5-2.3,0-3.4s1.3-2,2.4-2.4l26.6-11c0.5,1.4,1.1,2.8,1.7,4.2
		c0.6,1.4,1.2,2.8,1.8,4.1L21.2,282.4z M130.8,387.1c-0.9,2.3-3.6,3.4-5.9,2.4c-2.3-0.9-3.4-3.6-2.4-5.9l11-26.6
		c1.4,0.6,2.7,1.2,4.1,1.8c1.4,0.6,2.8,1.1,4.2,1.7L130.8,387.1z M282.4,383.6c0.9,2.3-0.1,4.9-2.4,5.9c-2.3,0.9-4.9-0.1-5.9-2.4
		l-11-26.6c1.4-0.5,2.8-1.1,4.2-1.7c1.4-0.6,2.8-1.2,4.1-1.8L282.4,383.6z M261.5,344.9c-38.1,15.8-80,15.8-118,0
		c-38.1-15.8-67.7-45.4-83.5-83.5c-32.5-78.6,4.9-169,83.5-201.5c19-7.9,39-11.8,59-11.8c20,0,40,3.9,59,11.8
		c38.1,15.8,67.7,45.4,83.5,83.5c15.8,38.1,15.8,80,0,118C329.2,299.5,299.5,329.2,261.5,344.9z M389.5,279.9
		c-1,2.3-3.6,3.4-5.9,2.4l-26.6-11c0.6-1.4,1.2-2.7,1.8-4.1c0.6-1.4,1.1-2.8,1.7-4.2l26.6,11C389.4,275,390.5,277.6,389.5,279.9z"/>
</g>
</svg>
