<?xml version="1.0" encoding="utf-8"?>
<!-- Generator: Adobe Illustrator 23.0.1, SVG Export Plug-In . SVG Version: 6.00 Build 0)  -->
<svg version="1.1" id="Capa_1" xmlns="http://www.w3.org/2000/svg" xmlns:xlink="http://www.w3.org/1999/xlink" x="0px" y="0px"
	 viewBox="0 0 55 55" style="enable-background:new 0 0 55 55;" xml:space="preserve">
<g>
	<path d="M51.7,23H40.8c-0.6,0-1,0.4-1,1s0.4,1,1,1h9.1l2.9,27H2.3l3.4-27h9.1c0.6,0,1-0.4,1-1s-0.4-1-1-1H3.9L0,54h55L51.7,23z"/>
	<path d="M26.7,39c-0.1,0.1-0.3,0.2-0.4,0.3c-0.2,0.1-0.4,0.3-0.6,0.4c-0.4,0.3-0.5,1-0.2,1.4c0.2,0.3,0.5,0.4,0.8,0.4
		c0.2,0,0.4-0.1,0.6-0.2c0.2-0.1,0.4-0.3,0.5-0.4c0.3-0.2,0.7-0.4,1-0.6c0.5-0.2,0.7-0.8,0.5-1.3c0,0,0,0,0,0
		c1.8-1.9,7.9-9.1,10.4-21.1c0.5-2.4,0.6-4.8,0.3-6.9C38.7,4.5,34.6,1,27.8,1c-6.9,0-11,3.5-11.8,10.1c-0.3,2.2-0.2,4.5,0.3,6.9
		C18.8,29.8,24.8,37,26.7,39z M17.9,11.3C18.7,5.7,21.9,3,27.8,3c5.9,0,9.1,2.7,9.8,8.3c0.3,1.9,0.1,4-0.3,6.2
		c-2.3,10.8-7.7,17.6-9.5,19.6c-1.8-2.1-7.2-8.9-9.5-19.6C17.8,15.4,17.7,13.3,17.9,11.3z"/>
	<path d="M27.8,19.9c4.1,0,7.3-3.3,7.3-7.3s-3.3-7.3-7.3-7.3s-7.3,3.3-7.3,7.3S23.7,19.9,27.8,19.9z M27.8,7.2
		c2.9,0,5.3,2.4,5.3,5.3s-2.4,5.3-5.3,5.3s-5.3-2.4-5.3-5.3S24.8,7.2,27.8,7.2z"/>
	<path d="M31.4,37.2c-0.5,0.1-0.9,0.6-0.8,1.2c0.1,0.5,0.5,0.8,1,0.8c0.1,0,0.1,0,0.2,0c0.6-0.1,1.2-0.2,1.9-0.3
		c0.5-0.1,0.9-0.6,0.9-1.1c-0.1-0.5-0.6-0.9-1.1-0.9C32.8,36.9,32.1,37,31.4,37.2z"/>
	<path d="M36.6,37.6c0,0.5,0.5,1,1,1c0,0,0,0,0,0l2-0.1c0.6,0,1-0.5,1-1c0-0.6-0.5-1-1-1l-2,0.1C37,36.6,36.6,37,36.6,37.6z"/>
	<path d="M22.4,42.2c-0.5,0.4-1,0.8-1.6,1.1c-0.5,0.3-0.6,0.9-0.3,1.4c0.2,0.3,0.5,0.5,0.8,0.5c0.2,0,0.4-0.1,0.5-0.2
		c0.6-0.4,1.1-0.8,1.7-1.2c0.4-0.3,0.5-1,0.2-1.4C23.5,41.9,22.9,41.8,22.4,42.2z"/>
	<path d="M44.7,35.6c-0.3,0.2-0.8,0.4-1.3,0.5c-0.5,0.1-0.9,0.6-0.8,1.2c0.1,0.5,0.5,0.8,1,0.8c0.1,0,0.1,0,0.2,0
		c0.8-0.2,1.5-0.5,2.1-0.9l0.1-0.1c0.4-0.3,0.5-1,0.2-1.4C45.9,35.3,45.2,35.2,44.7,35.6L44.7,35.6z"/>
	<path d="M8.9,43.4c0.1-0.5-0.2-1.1-0.7-1.2c-0.5-0.1-1.1,0.2-1.2,0.7c-0.1,0.5-0.2,0.9-0.2,1.4c0,0.1,0,0.2,0,0.4
		c0,0.2,0,0.4,0,0.6c0.1,0.5,0.5,0.9,1,0.9c0,0,0.1,0,0.1,0c0.5-0.1,0.9-0.5,0.9-1.1c0-0.1,0-0.3,0-0.4c0-0.1,0-0.2,0-0.2
		C8.7,44.1,8.8,43.7,8.9,43.4z"/>
	<path d="M44.7,27.8c-0.8-0.1-1.6,0-2.4,0.2c-0.5,0.1-0.8,0.7-0.7,1.2c0.1,0.4,0.5,0.7,1,0.7c0.1,0,0.2,0,0.3,0
		c0.5-0.1,1.1-0.2,1.6-0.1c0.6,0.1,1.1-0.3,1.1-0.9C45.6,28.4,45.2,27.9,44.7,27.8z"/>
	<path d="M46.7,32.8c-0.2,0.5,0.1,1.1,0.7,1.2c0.1,0,0.2,0,0.3,0c0.4,0,0.8-0.3,1-0.7c0.1-0.3,0.2-0.6,0.2-1c0-0.1,0-0.2,0-0.2
		c0-0.5-0.1-0.9-0.3-1.4c-0.2-0.5-0.8-0.8-1.3-0.6c-0.5,0.2-0.8,0.8-0.6,1.3c0.1,0.2,0.1,0.5,0.1,0.7l0,0.1
		C46.8,32.4,46.7,32.6,46.7,32.8z"/>
	<path d="M17.5,45.2c-0.6,0.3-1.2,0.5-1.8,0.8c-0.5,0.2-0.8,0.8-0.6,1.3c0.2,0.4,0.5,0.6,0.9,0.6c0.1,0,0.2,0,0.4-0.1
		c0.6-0.2,1.3-0.5,1.9-0.8c0.5-0.2,0.7-0.8,0.5-1.3C18.6,45.1,18,44.9,17.5,45.2z"/>
	<path d="M10.2,41c0.2,0,0.3,0,0.5-0.1c0.3-0.2,0.6-0.3,0.9-0.3c0.1,0,0.3,0,0.4,0c0.6,0.1,1.1-0.3,1.1-0.9c0.1-0.5-0.3-1-0.9-1.1
		c-0.3,0-0.6,0-0.9,0c-0.6,0.1-1.1,0.2-1.6,0.5c-0.5,0.3-0.7,0.9-0.4,1.4C9.5,40.8,9.8,41,10.2,41z"/>
	<path d="M10,48.8c0.2,0.1,0.4,0.1,0.7,0.1c0.3,0,0.5,0,0.8,0c0.3,0,0.6,0,0.9-0.1c0.5-0.1,0.9-0.6,0.9-1.1s-0.6-0.9-1.1-0.9
		c-0.4,0.1-0.8,0.1-1.2,0c-0.1,0-0.3,0-0.4-0.1c-0.5-0.1-1.1,0.2-1.2,0.7C9.1,48.2,9.5,48.7,10,48.8z"/>
</g>
</svg>
