<?xml version="1.0" encoding="iso-8859-1"?>
<!-- Generator: Adobe Illustrator 19.0.0, SVG Export Plug-In . SVG Version: 6.00 Build 0)  -->
<svg version="1.1" id="Capa_1" xmlns="http://www.w3.org/2000/svg" xmlns:xlink="http://www.w3.org/1999/xlink" x="0px" y="0px"
	 viewBox="0 0 512 512" style="enable-background:new 0 0 512 512;" xml:space="preserve">
<g>
	<g>
		<path d="M504.499,288.581c-22.118,0-33.314,4.332-44.142,8.521c-9.241,3.576-18.015,6.966-34.593,7.449
			c26.086-10.517,46.686-23.706,61.453-39.391c17.069-18.132,22.617-35.58,24.265-47.025c0.643-4.464-0.678-8.976-3.625-12.377
			c-2.948-3.403-7.228-5.354-11.741-5.354H346.58l-47.886-34.205c-5.382-3.844-11.723-5.876-18.336-5.876H215.92
			c-8.556,0-15.516,6.96-15.516,15.516v24.564h-9.908c-2.279,0-4.422-0.887-6.033-2.499l-5.592-5.592
			c-5.28-5.28-12.837-7.755-20.218-6.619l-83.913,12.91c-9.098,1.399-17.955,4.838-25.613,9.944l-23.221,15.48
			c-5.473,3.649-9.191,9.47-10.2,15.97c-1.009,6.5,0.769,13.174,4.878,18.31l31.043,38.804c-0.008-0.003-0.016-0.006-0.023-0.009
			C40.786,292.912,29.6,288.58,7.5,288.58c-4.142,0-7.5,3.358-7.5,7.5c0,4.142,3.358,7.5,7.5,7.5c19.296,0,28.714,3.648,38.687,7.51
			c10.818,4.19,22.004,8.522,44.104,8.522c22.104,0,33.293-4.333,44.114-8.522c9.975-3.862,19.396-7.51,38.698-7.51
			c19.309,0,28.734,3.648,38.712,7.51c10.824,4.19,22.017,8.522,44.128,8.522c22.105,0,33.294-4.333,44.115-8.522
			c9.975-3.862,19.397-7.51,38.699-7.51c19.317,0,28.747,3.648,38.729,7.511c10.828,4.189,22.024,8.521,44.143,8.521
			s33.314-4.332,44.142-8.521c9.982-3.862,19.412-7.511,38.729-7.511c4.142,0,7.5-3.358,7.5-7.5
			C512,291.938,508.641,288.581,504.499,288.581z M247.467,175.323h32.89c3.469,0,6.795,1.066,9.618,3.082l30.798,21.999h-73.306
			V175.323z M215.402,175.839c0-0.285,0.231-0.516,0.516-0.516h16.548v25.081h-17.064V175.839z M391.722,300.33
			c-3.065-1.002-5.922-2.106-8.824-3.229c-10.827-4.188-22.024-8.52-44.142-8.52c-22.105,0-33.294,4.333-44.115,8.522
			c-9.975,3.862-19.397,7.51-38.699,7.51c-19.31,0-28.735-3.648-38.713-7.51c-10.824-4.19-22.016-8.522-44.127-8.522
			c-22.104,0-33.293,4.333-44.114,8.522c-9.975,3.862-19.396,7.51-38.698,7.51c-5.387,0-10.003-0.285-14.077-0.779l-43.917-54.896
			c-0.371-0.464-0.687-0.956-0.95-1.47h32.269c4.142,0,7.5-3.358,7.5-7.5c0-4.142-3.358-7.5-7.5-7.5h-23.33l17.16-11.44
			c5.853-3.901,12.622-6.529,19.574-7.599l83.914-12.91c2.673-0.411,5.415,0.485,7.33,2.4l5.591,5.591
			c4.444,4.445,10.354,6.893,16.64,6.893h305.621c0.068,0,0.25,0,0.403,0.176c0.151,0.174,0.126,0.345,0.116,0.418
			c-0.603,4.184-1.973,9.884-4.979,16.47H95.676c-4.142,0-7.5,3.358-7.5,7.5c0,4.142,3.358,7.5,7.5,7.5h386.895
			C468.925,265.343,442.55,285.75,391.722,300.33z"/>
	</g>
</g>
<g>
	<g>
		<path d="M471.417,332.94c-1.49-3.865-5.832-5.79-9.696-4.3l-1.367,0.528c-4.515,1.747-8.78,3.397-13.855,4.715
			c-4.009,1.042-6.415,5.136-5.374,9.145c0.877,3.377,3.92,5.616,7.254,5.616c0.625,0,1.259-0.079,1.891-0.243
			c5.912-1.536,10.784-3.421,15.497-5.245l1.349-0.521C470.981,341.145,472.907,336.804,471.417,332.94z"/>
	</g>
</g>
<g>
	<g>
		<path d="M416.592,336.589c-16.001-0.577-24.595-3.902-33.694-7.423c-10.828-4.189-22.024-8.521-44.142-8.521
			c-22.105,0-33.294,4.333-44.115,8.522c-9.975,3.862-19.397,7.51-38.699,7.51c-19.31,0-28.734-3.648-38.713-7.51
			c-10.824-4.19-22.016-8.522-44.127-8.522c-22.104,0-33.293,4.333-44.114,8.522c-9.077,3.515-17.651,6.834-33.587,7.419
			c-4.14,0.152-7.372,3.631-7.22,7.77c0.152,4.14,3.634,7.364,7.77,7.22c18.454-0.677,28.622-4.614,38.454-8.421
			c9.975-3.862,19.396-7.51,38.698-7.51c19.309,0,28.734,3.648,38.713,7.51c10.824,4.19,22.016,8.522,44.127,8.522
			c22.105,0,33.294-4.333,44.115-8.522c9.975-3.862,19.397-7.51,38.699-7.51c19.317,0,28.747,3.648,38.729,7.511
			c9.855,3.813,20.045,7.756,38.566,8.424c4.104,0.153,7.616-3.085,7.765-7.225C423.966,340.215,420.731,336.739,416.592,336.589z"
			/>
	</g>
</g>
<g>
	<g>
		<path d="M65.51,333.9c-5.105-1.323-9.384-2.981-13.914-4.736c-3.864-1.496-8.207,0.422-9.703,4.284
			c-1.496,3.863,0.422,8.207,4.284,9.703c4.73,1.832,9.621,3.727,15.569,5.269c0.631,0.164,1.264,0.242,1.887,0.242
			c3.335,0,6.379-2.242,7.255-5.62C71.928,339.033,69.52,334.94,65.51,333.9z"/>
	</g>
</g>
<g>
</g>
<g>
</g>
<g>
</g>
<g>
</g>
<g>
</g>
<g>
</g>
<g>
</g>
<g>
</g>
<g>
</g>
<g>
</g>
<g>
</g>
<g>
</g>
<g>
</g>
<g>
</g>
<g>
</g>
</svg>
