<?xml version="1.0" encoding="utf-8"?>
<!-- Generator: Adobe Illustrator 23.0.2, SVG Export Plug-In . SVG Version: 6.00 Build 0)  -->
<svg version="1.1" id="Layer_1" xmlns="http://www.w3.org/2000/svg" xmlns:xlink="http://www.w3.org/1999/xlink" x="0px" y="0px"
	 viewBox="0 0 185.8 64.5" style="enable-background:new 0 0 185.8 64.5;" xml:space="preserve">
<style type="text/css">
	.st0{fill:#6D6E70;}
	.st1{fill:#FFFFFF;}
	.st2{fill:#929497;}
	.st3{fill:#404041;}
	.st4{fill:#006AA2;}
	.st5{fill:#58595B;}
	.st6{fill:#A6A8AB;}
	.st7{fill:#231F20;}
	.st8{fill:#B5E1E9;}
	.st9{fill:#3783AB;}
	.st10{fill:#808184;}
</style>
<g>
	<path class="st0" d="M38.3,40.8c-0.3,0-0.6-0.3-0.6-0.6l-0.4-6.3c0-0.4,0.2-0.7,0.6-0.7c0.4,0,0.7,0.2,0.7,0.6l0.4,6.3
		C39,40.5,38.7,40.8,38.3,40.8C38.4,40.8,38.4,40.8,38.3,40.8z"/>
	<g>
		<path class="st1" d="M48,43.6l-9.9,0.8c-1.1,0.1-2.1-0.7-2.2-1.8l0-0.1c-0.1-1.1,0.7-2.1,1.8-2.2l9.9-0.8c1.1-0.1,2.1,0.7,2.2,1.8
			l0,0.1C50,42.5,49.1,43.5,48,43.6z"/>
		<path class="st2" d="M38,45c-0.6,0-1.2-0.2-1.7-0.6c-0.5-0.5-0.9-1.1-0.9-1.8l0-0.1c-0.1-1.5,1-2.7,2.4-2.9l9.9-0.8
			c0.7-0.1,1.4,0.2,1.9,0.6c0.5,0.5,0.9,1.1,0.9,1.8l0,0.1c0.1,1.4-1,2.7-2.4,2.9c0,0,0,0,0,0L38.2,45C38.1,45,38,45,38,45z
			 M47.9,40.1c0,0-0.1,0-0.1,0l-9.9,0.8c-0.4,0-0.7,0.2-0.9,0.5c-0.2,0.3-0.4,0.6-0.3,1l0,0.1c0,0.4,0.2,0.7,0.5,0.9
			c0.3,0.2,0.6,0.4,1,0.3l9.9-0.8v0c0.4,0,0.7-0.2,0.9-0.5c0.2-0.3,0.4-0.6,0.3-1l0-0.1C49.2,40.6,48.6,40.1,47.9,40.1z M48,43.6
			L48,43.6L48,43.6z"/>
	</g>
	<g>
		<path class="st1" d="M38.4,37L38.4,37c-1.1,0.2-2.1-0.6-2.3-1.7l-0.5-3.8c-0.2-1.1,0.6-2.1,1.7-2.3h0c1.1-0.2,2.1,0.6,2.3,1.7
			l0.5,3.8C40.3,35.9,39.5,36.9,38.4,37z"/>
		<path class="st2" d="M38.2,37.7c-1.3,0-2.4-1-2.6-2.3L35,31.6c-0.1-0.7,0.1-1.4,0.5-1.9s1-0.9,1.7-1c1.4-0.2,2.8,0.8,3,2.2
			l0.5,3.8c0.2,1.4-0.8,2.8-2.2,3l0,0C38.4,37.7,38.3,37.7,38.2,37.7z M38.4,37L38.4,37L38.4,37z M37.6,29.9c-0.1,0-0.1,0-0.2,0
			c-0.4,0-0.7,0.2-0.9,0.5c-0.2,0.3-0.3,0.7-0.3,1l0.5,3.8c0.1,0.7,0.8,1.3,1.5,1.2l0,0c0.7-0.1,1.3-0.8,1.2-1.5L39,31
			C38.9,30.4,38.3,29.9,37.6,29.9z"/>
	</g>
	<g>
		<path class="st0" d="M4.4,44.5L5,51.2l1.8,1.3c0,0,0.5,4.9,0,5.8C6.2,59.1,3,59.3,3,60.9s0,2.5,0,2.5h13.1l-1.4-18.5L4.4,44.5z"/>
		<path class="st3" d="M16.1,64.1H3c-0.4,0-0.6-0.3-0.6-0.6v-2.5c0-1.4,1.5-2,2.6-2.4c0.4-0.2,1.1-0.4,1.2-0.6
			c0.2-0.4,0.2-2.9-0.1-5.1l-1.6-1.1c-0.2-0.1-0.3-0.3-0.3-0.5l-0.5-6.7c0-0.2,0-0.4,0.2-0.5c0.1-0.1,0.3-0.2,0.5-0.2l10.2,0.4
			c0.3,0,0.6,0.3,0.6,0.6l1.4,18.5c0,0.2,0,0.4-0.2,0.5C16.4,64,16.3,64.1,16.1,64.1z M3.6,62.8h11.8l-1.3-17.3l-9-0.3l0.5,5.6
			l1.6,1.1c0.2,0.1,0.2,0.3,0.3,0.5c0.2,1.5,0.5,5.2-0.1,6.2c-0.3,0.5-1,0.8-1.9,1.1c-0.8,0.3-1.8,0.7-1.8,1.2V62.8z"/>
	</g>
	<g>
		<path class="st0" d="M20.6,44.9l0.5-1.6c0,0-0.7-8.3-1.3-9.5S8.5,29.6,4.8,31.2c-3.8,1.6-4.1,4-4.1,4L1,44.7c0,0,0,1.1,1.3,1.4
			S20.6,44.9,20.6,44.9z"/>
		<path class="st3" d="M3.1,46.8c-0.5,0-0.8,0-1-0.1c-1.4-0.4-1.7-1.5-1.7-2.1L0,35.2c0,0,0-0.1,0-0.1c0-0.1,0.5-2.7,4.5-4.4
			c2.5-1.1,7.2-0.3,9.1,0.1c0.6,0.1,6.2,1.3,6.8,2.7c0.6,1.3,1.2,8.9,1.3,9.7c0,0.1,0,0.2,0,0.3l-0.5,1.6c-0.1,0.2-0.3,0.4-0.5,0.4
			C18.1,45.8,6.7,46.8,3.1,46.8z M1.3,35.2l0.4,9.4c0,0.1,0.1,0.6,0.8,0.8c1,0.2,11.2-0.6,17.7-1.2l0.4-1.1
			c-0.3-3.2-0.8-8.4-1.2-9.2C18.4,33,8.5,30.3,5,31.8C1.9,33.1,1.4,34.9,1.3,35.2z M20.6,44.9L20.6,44.9L20.6,44.9z"/>
	</g>
	<g>
		<path class="st0" d="M9.8,31c0,0-0.9,0.7-1.6,1.6c-0.7,0.9-0.1,3.5-0.9,3.8c-0.8,0.3-6.6,0.7-6.6,0.7"/>
		<path class="st3" d="M0.6,37.7c-0.3,0-0.6-0.3-0.6-0.6c0-0.4,0.2-0.7,0.6-0.7C3,36.3,6.5,36,7,35.8c0-0.1,0.1-0.8,0.1-1.2
			c0.1-0.9,0.1-1.7,0.5-2.3c0.7-1,1.7-1.7,1.8-1.8c0.3-0.2,0.7-0.1,0.9,0.1s0.1,0.7-0.1,0.9c0,0-0.9,0.6-1.5,1.5
			c-0.2,0.3-0.3,1-0.3,1.7c-0.1,1-0.1,2.1-1,2.4C6.6,37.3,1.7,37.6,0.6,37.7C0.7,37.7,0.7,37.7,0.6,37.7z"/>
	</g>
	<g>
		<path class="st4" d="M16.6,49l2.7-3.3c0,0,158.8-5.7,163.7-5.1c0,0-16,12.5-17.1,13.1c-1.1,0.6-15.7,8.3-22,9.4
			c-6.3,1.1-122.3,0-122.3,0L16.6,49z"/>
		<path class="st5" d="M109,64.5c-35.2,0-84.4-0.5-87.5-0.5c-0.4,0-0.7-0.2-0.8-0.6l-4.9-14.1c-0.1-0.3,0-0.6,0.1-0.8l2.7-3.3
			c0.2-0.2,0.4-0.3,0.6-0.3c6.5-0.2,159-5.7,163.8-5.1c0.3,0,0.6,0.3,0.7,0.6c0.1,0.3,0,0.7-0.3,0.9c-2.7,2.1-16.1,12.6-17.3,13.2
			l-0.6,0.3c-10.3,5.3-17.8,8.5-21.6,9.2C141.9,64.3,127.3,64.5,109,64.5z M22.1,62.2c9,0.1,115.7,1.1,121.6,0
			c2.6-0.5,8.3-2.4,21.1-9l0.6-0.3c0.8-0.4,9-6.8,15.1-11.5c-16.2,0.1-109.8,3.3-160.8,5.2l-2.1,2.6L22.1,62.2z"/>
	</g>
	<path class="st6" d="M97.9,26c-0.6,0-1-0.4-1.1-1L95,2.5c0-0.6,0.4-1.1,1-1.2c0.6,0,1.1,0.4,1.2,1L99,24.8
		C99.1,25.4,98.6,25.9,97.9,26C98,26,98,26,97.9,26z"/>
	<path class="st6" d="M105.2,26.9c-0.5,0-1-0.4-1.1-0.9l-4-23.2c-0.1-0.6,0.3-1.1,0.9-1.2c0.6-0.1,1.1,0.3,1.2,0.9l4,23.2
		c0.1,0.6-0.3,1.1-0.9,1.2C105.3,26.9,105.2,26.9,105.2,26.9z"/>
	<g>
		<line class="st1" x1="83.7" y1="32.3" x2="86.8" y2="33.5"/>
		<path class="st5" d="M86.8,33.8c0,0-0.1,0-0.1,0l-3.1-1.2c-0.2-0.1-0.3-0.3-0.2-0.5c0.1-0.2,0.3-0.3,0.5-0.2l3.1,1.2
			c0.2,0.1,0.3,0.3,0.2,0.5C87,33.8,86.9,33.8,86.8,33.8z"/>
	</g>
	<g>
		<line class="st1" x1="86.8" y1="29.4" x2="88.5" y2="33"/>
		<path class="st5" d="M88.5,33.3c-0.1,0-0.3-0.1-0.3-0.2l-1.8-3.6c-0.1-0.2,0-0.4,0.2-0.5c0.2-0.1,0.4,0,0.5,0.2l1.8,3.6
			c0.1,0.2,0,0.4-0.2,0.5C88.6,33.3,88.6,33.3,88.5,33.3z"/>
	</g>
	<g>
		<line class="st1" x1="90.7" y1="29.2" x2="90" y2="32"/>
		<path class="st5" d="M90,32.4C90,32.4,90,32.4,90,32.4c-0.3-0.1-0.4-0.2-0.3-0.4l0.6-2.8c0-0.2,0.2-0.3,0.4-0.3
			c0.2,0,0.3,0.2,0.3,0.4l-0.6,2.8C90.4,32.3,90.2,32.4,90,32.4z"/>
	</g>
	<path class="st7" d="M82.4,32.8c-0.6,0-1-0.2-1.2-0.5C80.7,31,84,29.4,86,28.5c2-0.8,5.4-2.1,6-0.8c0.3,0.7-0.6,1.4-1.4,1.9
		c-0.9,0.6-2.1,1.2-3.4,1.8C85.8,32,83.8,32.8,82.4,32.8z M90.4,28.4c-0.8,0.1-2.1,0.5-4,1.2c-1.9,0.8-3.1,1.5-3.7,2
		c0.8-0.1,2.1-0.5,4-1.2C88.6,29.6,89.8,28.8,90.4,28.4z"/>
	<path class="st5" d="M82.4,32.9c-0.6,0-1.1-0.2-1.3-0.6c-0.5-1.3,2.3-2.8,4.8-3.8c2.5-1,5.6-2,6.1-0.8c0.3,0.8-0.6,1.5-1.4,2.1
		c-0.9,0.6-2.1,1.2-3.4,1.8C85.6,32.2,83.7,32.9,82.4,32.9z M90.1,28.5c-0.8,0.2-2,0.5-3.6,1.2c-1.6,0.7-2.7,1.3-3.4,1.8
		c0.8-0.2,2-0.5,3.6-1.2C88.3,29.6,89.4,29,90.1,28.5z"/>
	<ellipse transform="matrix(0.9212 -0.389 0.389 0.9212 -4.9112 36.1885)" class="st5" cx="86.9" cy="30.2" rx="2.1" ry="0.4"/>
	<path class="st6" d="M85.3,37.3c-0.6,0-1.1-0.5-1.1-1.1c-0.1-7.7-0.3-22.7-0.6-24.7c-0.2-1.9-1.7-2.6-2-2.6c0,0,0,0,0,0
		c-0.4,0-5.4-1.1-14.7-3.4c-0.6-0.1-0.9-0.7-0.8-1.3s0.7-0.9,1.3-0.8C72.6,4.7,81,6.7,81.8,6.8c0,0,0,0,0,0c1.2,0,3.6,1.6,4,4.5
		c0.3,2.6,0.6,24,0.6,24.9C86.3,36.8,85.9,37.3,85.3,37.3C85.3,37.3,85.3,37.3,85.3,37.3z"/>
	<g>
		<path class="st1" d="M83.3,41.4l0.8-6.1l6.8-2.9c0,0,3.2-7.6,3.8-7.8c0.6-0.2,11.4,1,11.4,1l3.8,15L83.3,41.4z"/>
		<path class="st0" d="M83.3,42.3c-0.2,0-0.5-0.1-0.6-0.3c-0.2-0.2-0.2-0.4-0.2-0.7l0.8-6.1c0-0.3,0.2-0.6,0.5-0.7l6.5-2.7
			c3.3-7.6,3.8-7.8,4.2-8c0.2-0.1,0.8-0.2,11.8,0.9c0.4,0,0.7,0.3,0.7,0.6l3.8,15c0.1,0.3,0,0.5-0.1,0.7c-0.2,0.2-0.4,0.3-0.7,0.3
			L83.3,42.3C83.3,42.3,83.3,42.3,83.3,42.3z M84.9,35.9l-0.6,4.6l24.5-0.7l-3.4-13.4c-4.4-0.5-9.1-0.9-10.3-0.9
			c-0.6,0.9-2.1,4.3-3.4,7.3c-0.1,0.2-0.3,0.4-0.5,0.5L84.9,35.9z M95.2,25.4"/>
	</g>
	<g>
		<path class="st8" d="M110.9,0.6L66.4,2.7c0,0-6.3-0.2-6.1,0.6s0.2,1.3,2.1,1.7c1.9,0.4,51.5-0.6,51.5-0.6s5.3-0.6,5.3-1.7
			s-5.7-2.1-5.7-2.1H110.9z"/>
		<path class="st6" d="M67.1,5.7c-2.7,0-4.5,0-4.8-0.1c-2-0.4-2.3-1.1-2.6-2l0-0.1c-0.1-0.2,0-0.5,0.2-0.7c0.2-0.2,0.7-0.9,6.6-0.7
			L110.9,0l2.8,0c4.1,0.7,6.2,1.6,6.2,2.7c0,1.1-2,1.9-5.9,2.4C109.8,5.2,79.2,5.7,67.1,5.7z M61,3.6c0.1,0.4,0.4,0.6,1.5,0.8
			C64,4.7,94,4.2,113.9,3.8c2-0.2,4-0.7,4.6-1.1c-0.6-0.4-2.8-1.1-5-1.4h-2.6L66.4,3.4C64.3,3.3,61.9,3.4,61,3.6z M60.9,3.1
			L60.9,3.1C60.9,3.2,60.9,3.2,60.9,3.1z"/>
	</g>
	<path class="st0" d="M66.9,42.7c-0.6,0-1-0.4-1.1-1l-0.4-6.3c0-0.6,0.4-1.1,1-1.1c0.6,0,1.1,0.4,1.1,1l0.4,6.3
		C68,42.2,67.5,42.7,66.9,42.7C66.9,42.7,66.9,42.7,66.9,42.7z"/>
	<path class="st0" d="M74.1,42.7c-0.6,0-1-0.4-1.1-1l-0.4-6.3c0-0.6,0.4-1.1,1-1.1c0.6,0,1.1,0.4,1.1,1l0.4,6.3
		C75.2,42.2,74.8,42.7,74.1,42.7C74.2,42.7,74.2,42.7,74.1,42.7z"/>
	<path class="st0" d="M65.6,34.3c-0.3,0-0.6-0.2-0.8-0.5l-3-6c-0.2-0.4,0-0.9,0.4-1.1c0.4-0.2,0.9,0,1.1,0.4l3,6
		c0.2,0.4,0,0.9-0.4,1.1C65.8,34.2,65.7,34.3,65.6,34.3z"/>
	<g>
		<path class="st1" d="M17.8,43.2l-2.4,2.7l1.5,4.2l2.6-3l163-5.1c0,0,2.7-1.4,2.6-2.1c-0.1-0.7-1.1-1.3-2.6-1.3
			C181.1,38.5,17.8,43.2,17.8,43.2z"/>
		<path class="st5" d="M17,50.8c0,0-0.1,0-0.1,0c-0.3,0-0.5-0.2-0.6-0.5l-1.5-4.2c-0.1-0.3,0-0.5,0.1-0.8l2.4-2.7
			c0.1-0.2,0.3-0.2,0.5-0.2c6.7-0.2,163.3-4.7,164.7-4.7c1.7,0,3.1,0.8,3.3,1.9c0.1,0.3,0.3,1.3-3,3c-0.1,0.1-0.2,0.1-0.3,0.1
			L19.9,47.8l-2.4,2.7C17.4,50.7,17.2,50.8,17,50.8z M16.3,46.1l0.9,2.6l1.7-2c0.1-0.2,0.3-0.3,0.5-0.3l162.8-5.1
			c0.9-0.5,1.7-1.1,2-1.4c-0.2-0.2-0.8-0.6-1.8-0.6c-1.4,0-156.2,4.5-164.4,4.7L16.3,46.1z"/>
	</g>
	<g>
		<path class="st1" d="M75.3,36.6l-9.9,1.3c-1.1,0.1-2.1-0.6-2.3-1.7l0-0.1c-0.1-1.1,0.6-2.1,1.7-2.3l9.9-1.3
			c1.1-0.1,2.1,0.6,2.3,1.7l0,0.1C77.2,35.4,76.4,36.4,75.3,36.6z"/>
		<path class="st2" d="M65.2,38.5c-0.6,0-1.1-0.2-1.6-0.6c-0.6-0.4-0.9-1.1-1-1.8l0-0.1c-0.1-0.7,0.1-1.4,0.5-2s1.1-0.9,1.8-1
			l9.9-1.3c1.4-0.2,2.8,0.8,3,2.3l0,0.1c0.2,1.4-0.8,2.8-2.3,3l-9.9,1.3C65.4,38.5,65.3,38.5,65.2,38.5z M75.1,33.1
			c-0.1,0-0.1,0-0.2,0L65,34.4c-0.4,0-0.7,0.2-0.9,0.5c-0.2,0.3-0.3,0.7-0.3,1l0,0.1c0,0.4,0.2,0.7,0.5,0.9c0.3,0.2,0.7,0.3,1,0.3
			l9.9-1.3l0,0c0.8-0.1,1.3-0.8,1.2-1.6l0-0.1C76.4,33.6,75.8,33.1,75.1,33.1z"/>
	</g>
	<g>
		<path class="st1" d="M63.5,30.7L63.5,30.7c-1.1,0.1-2.1-0.7-2.2-1.7l-0.5-3.8c-0.1-1.1,0.7-2.1,1.7-2.2h0c1.1-0.1,2.1,0.7,2.2,1.7
			l0.5,3.8C65.4,29.5,64.6,30.5,63.5,30.7z"/>
		<path class="st2" d="M63.2,31.3c-0.6,0-1.1-0.2-1.6-0.6c-0.6-0.4-0.9-1.1-1-1.7l-0.5-3.8c-0.1-0.7,0.1-1.4,0.5-1.9
			c0.4-0.6,1.1-0.9,1.7-1c0.7-0.1,1.4,0.1,1.9,0.5c0.6,0.4,0.9,1.1,1,1.7l0.5,3.8c0.2,1.4-0.9,2.7-2.3,2.9c0,0,0,0,0,0
			C63.5,31.3,63.3,31.3,63.2,31.3z M63.5,30.7L63.5,30.7L63.5,30.7z M62.8,23.5c-0.1,0-0.1,0-0.2,0c-0.4,0-0.7,0.2-0.9,0.5
			c-0.2,0.3-0.3,0.6-0.3,1l0.5,3.8c0,0.4,0.2,0.7,0.5,0.9c0.3,0.2,0.6,0.3,1,0.3c0.7-0.1,1.3-0.8,1.2-1.5l-0.5-3.8
			C64.1,24,63.5,23.5,62.8,23.5z"/>
	</g>
	<path class="st9" d="M53.2,54.5c0,0-0.1,0-0.1,0l-8.8-3.1l-25,0.9c-0.2,0-0.4-0.2-0.4-0.4c0-0.2,0.2-0.4,0.4-0.4l25.1-1
		c0.1,0,0.1,0,0.2,0l8.8,3.1c2.6-0.1,64.4-2.3,76.9-3.7c12.7-1.4,42.8-4.9,43.1-4.9c0.2,0,0.4,0.1,0.5,0.4c0,0.2-0.1,0.4-0.4,0.5
		c-0.3,0-30.4,3.5-43.1,4.9C117.5,52.2,53.8,54.5,53.2,54.5C53.2,54.5,53.2,54.5,53.2,54.5z"/>
	<path class="st9" d="M22.1,59.1c-0.2,0-0.4-0.2-0.4-0.4c0-0.2,0.2-0.4,0.4-0.4l52.6-1.1l2.5-1.9c0.1-0.1,0.2-0.1,0.2-0.1l6.6-0.3
		c0.1,0,0.3,0,0.3,0.1c0.1,0.1,0.1,0.2,0.1,0.3l-0.2,1.5c27.2-0.7,84.1-8.7,84.7-8.8c0.2,0,0.5,0.1,0.5,0.4c0,0.2-0.1,0.5-0.4,0.5
		c-0.6,0.1-58.2,8.3-85.3,8.8c-0.1,0-0.2,0-0.3-0.1c-0.1-0.1-0.1-0.2-0.1-0.3l0.2-1.5l-5.9,0.3l-2.5,1.9c-0.1,0.1-0.2,0.1-0.3,0.1
		L22.1,59.1C22.1,59.1,22.1,59.1,22.1,59.1z"/>
	<path class="st6" d="M85,15.1c-0.5,0-0.9-0.3-1-0.8c-0.1-0.6,0.2-1.2,0.8-1.3l12-2.9c0.6-0.1,1.2,0.2,1.3,0.8
		c0.1,0.6-0.2,1.2-0.8,1.3l-12,2.9C85.2,15.1,85.1,15.1,85,15.1z"/>
	<path class="st10" d="M62.9,7.2c-0.3,0-0.6-0.2-0.7-0.5l-2.3-5.3c-0.2-0.4,0-0.8,0.4-1c0.4-0.2,0.8,0,1,0.4l2.3,5.3
		c0.2,0.4,0,0.8-0.4,1C63.1,7.2,63,7.2,62.9,7.2z"/>
	<path class="st10" d="M66.5,7.1c-0.3,0-0.6-0.2-0.7-0.5l-2.3-5.3c-0.2-0.4,0-0.8,0.4-1c0.4-0.2,0.8,0,1,0.4l2.3,5.3
		c0.2,0.4,0,0.8-0.4,1C66.7,7.1,66.6,7.1,66.5,7.1z"/>
	<path class="st10" d="M70.1,7c-0.3,0-0.6-0.2-0.7-0.5l-2.3-5.3c-0.2-0.4,0-0.8,0.4-1c0.4-0.2,0.8,0,1,0.4L70.8,6
		c0.2,0.4,0,0.8-0.4,1C70.3,7,70.2,7,70.1,7z"/>
	<path class="st10" d="M73.7,6.9c-0.3,0-0.6-0.2-0.7-0.5l-2.3-5.3c-0.2-0.4,0-0.8,0.4-1c0.4-0.2,0.8,0,1,0.4l2.3,5.3
		c0.2,0.4,0,0.8-0.4,1C73.9,6.9,73.8,6.9,73.7,6.9z"/>
</g>
</svg>
