<?xml version="1.0" encoding="utf-8"?>
<!-- Generator: Adobe Illustrator 23.0.1, SVG Export Plug-In . SVG Version: 6.00 Build 0)  -->
<svg version="1.1" id="Capa_1" xmlns="http://www.w3.org/2000/svg" xmlns:xlink="http://www.w3.org/1999/xlink" x="0px" y="0px"
	 viewBox="0 0 80.1 80.1" style="enable-background:new 0 0 80.1 80.1;" xml:space="preserve">
<style type="text/css">
	.st0{fill:#FFFFFF;}
</style>
<g>
	<g>
		<g>
			<path d="M52.1,74.8c-6.7,0-13.7-1.1-20.8-3.3L29.9,71l-0.1-0.9V57.8c0-8.7,7-15.8,15.6-16c-4.3-2-7.4-6.4-7.4-11.6
				c0-7,5.7-12.8,12.8-12.8c7,0,12.8,5.7,12.8,12.8c0,5.1-3,9.5-7.4,11.6c4.1,0.1,8,1.8,10.9,4.7c3,3,4.7,7.1,4.7,11.3V71H71
				l-0.6,0.3C70.1,71.5,63.5,74.8,52.1,74.8z"/>
			<path class="st0" d="M50.8,18.5c6.5,0,11.8,5.3,11.8,11.8S57.3,42,50.8,42C44.3,42,39,36.7,39,30.2S44.3,18.5,50.8,18.5
				 M55.8,42.8c8.3,0,15,6.8,15,15V70h-0.1L70,70.4c-0.4,0.2-6.8,3.4-17.9,3.4c-5.7,0-12.5-0.8-20.5-3.3l-0.8-0.3l0-0.2V57.8
				c0-8.3,6.8-15,15-15H55.8 M50.8,16.5c-7.6,0-13.8,6.2-13.8,13.8c0,4.4,2.1,8.4,5.4,10.9c-7.8,1.6-13.6,8.5-13.6,16.7V70v0.2
				l0,0.2l0,0.2l0.2,1.2l1.2,0.4l0.8,0.3c7.2,2.2,14.3,3.4,21.1,3.4c11.4,0,18.1-3.2,18.8-3.6l0.4-0.2h1.6v-2V57.8
				c0-4.5-1.8-8.8-5-12c-2.4-2.4-5.4-4-8.6-4.7c3.3-2.5,5.4-6.5,5.4-10.9C64.6,22.7,58.4,16.5,50.8,16.5L50.8,16.5z"/>
		</g>
	</g>
	<g>
		<g>
			<path d="M30.6,78.1C24,78.1,17,77,9.9,74.8l-1.4-0.4l-0.1-0.9V61.2c0-8.7,7-15.8,15.6-16c-4.3-2-7.4-6.4-7.4-11.6
				c0-7,5.7-12.8,12.8-12.8c7,0,12.8,5.7,12.8,12.8c0,5.1-3,9.5-7.4,11.6c4.1,0.1,8,1.8,10.9,4.7c3,3,4.7,7.1,4.7,11.3v13.2h-0.8
				l-0.6,0.3C48.2,75,41.8,78.1,30.6,78.1z"/>
			<path class="st0" d="M29.3,21.8c6.5,0,11.8,5.3,11.8,11.8s-5.3,11.8-11.8,11.8c-6.5,0-11.8-5.3-11.8-11.8S22.8,21.8,29.3,21.8
				 M34.3,46.1c8.3,0,15,6.8,15,15v12.2h-0.1l-0.8,0.4c-0.4,0.2-6.8,3.4-17.9,3.4c-5.7,0-12.5-0.8-20.5-3.3l-0.8-0.3l0-0.2V61.2
				c0-8.3,6.7-15,15-15H34.3 M29.3,19.8c-7.6,0-13.8,6.2-13.8,13.8c0,4.4,2.1,8.4,5.4,10.9c-7.8,1.6-13.6,8.5-13.6,16.7v12.2v0.2
				l0,0.2l0,0.2l0.2,1.2l1.2,0.4l0.8,0.3c7.2,2.2,14.3,3.4,21.1,3.4c11.4,0,18.1-3.2,18.8-3.6l0.4-0.2h1.6v-2V61.2
				c0-4.5-1.8-8.8-5-12c-2.4-2.4-5.4-4-8.6-4.7C41,42,43.1,38,43.1,33.6C43.1,26,36.9,19.8,29.3,19.8L29.3,19.8z"/>
		</g>
	</g>
</g>
</svg>
