<?xml version="1.0" encoding="utf-8"?>
<!-- Generator: Adobe Illustrator 23.0.2, SVG Export Plug-In . SVG Version: 6.00 Build 0)  -->
<svg version="1.1" id="Layer_1" xmlns="http://www.w3.org/2000/svg" xmlns:xlink="http://www.w3.org/1999/xlink" x="0px" y="0px"
	 viewBox="0 0 185.8 66.5" style="enable-background:new 0 0 185.8 66.5;" xml:space="preserve">
<style type="text/css">
	.st0{stroke:#000000;stroke-width:2;stroke-miterlimit:10;}
	.st1{stroke:#000000;stroke-miterlimit:10;}
</style>
<g>
	<path d="M38.3,41.8c-0.3,0-0.6-0.3-0.6-0.6l-0.4-6.3c0-0.4,0.2-0.7,0.6-0.7c0.4,0,0.7,0.2,0.7,0.6l0.4,6.3
		C39,41.5,38.7,41.8,38.3,41.8C38.4,41.8,38.4,41.8,38.3,41.8z"/>
	<g>
		<path d="M48,44.6l-9.9,0.8c-1.1,0.1-2.1-0.7-2.2-1.8v-0.1c-0.1-1.1,0.7-2.1,1.8-2.2l9.9-0.8c1.1-0.1,2.1,0.7,2.2,1.8v0.1
			C50,43.5,49.1,44.5,48,44.6z"/>
		<path d="M38,46c-0.6,0-1.2-0.2-1.7-0.6c-0.5-0.5-0.9-1.1-0.9-1.8v-0.1c-0.1-1.5,1-2.7,2.4-2.9l9.9-0.8c0.7-0.1,1.4,0.2,1.9,0.6
			c0.5,0.5,0.9,1.1,0.9,1.8v0.1c0.1,1.4-1,2.7-2.4,2.9l0,0L38.2,46C38.1,46,38,46,38,46z M47.9,41.1L47.9,41.1l-10,0.8
			c-0.4,0-0.7,0.2-0.9,0.5s-0.4,0.6-0.3,1v0.1c0,0.4,0.2,0.7,0.5,0.9s0.6,0.4,1,0.3l9.9-0.8l0,0c0.4,0,0.7-0.2,0.9-0.5
			s0.4-0.6,0.3-1v-0.1C49.2,41.6,48.6,41.1,47.9,41.1z M48,44.6L48,44.6L48,44.6z"/>
	</g>
	<g>
		<path d="M38.4,38L38.4,38c-1.1,0.2-2.1-0.6-2.3-1.7l-0.5-3.8c-0.2-1.1,0.6-2.1,1.7-2.3l0,0c1.1-0.2,2.1,0.6,2.3,1.7l0.5,3.8
			C40.3,36.9,39.5,37.9,38.4,38z"/>
		<path d="M38.2,38.7c-1.3,0-2.4-1-2.6-2.3L35,32.6c-0.1-0.7,0.1-1.4,0.5-1.9s1-0.9,1.7-1c1.4-0.2,2.8,0.8,3,2.2l0.5,3.8
			c0.2,1.4-0.8,2.8-2.2,3l0,0C38.4,38.7,38.3,38.7,38.2,38.7z M38.4,38L38.4,38L38.4,38z M37.6,30.9c-0.1,0-0.1,0-0.2,0
			c-0.4,0-0.7,0.2-0.9,0.5s-0.3,0.7-0.3,1l0.5,3.8c0.1,0.7,0.8,1.3,1.5,1.2l0,0c0.7-0.1,1.3-0.8,1.2-1.5L39,32
			C38.9,31.4,38.3,30.9,37.6,30.9z"/>
	</g>
	<g>
		<path d="M4.4,45.5L5,52.2l1.8,1.3c0,0,0.5,4.9,0,5.8c-0.6,0.8-3.8,1-3.8,2.6s0,2.5,0,2.5h13.1l-1.4-18.5L4.4,45.5z"/>
		<path d="M16.1,65.1H3c-0.4,0-0.6-0.3-0.6-0.6V62c0-1.4,1.5-2,2.6-2.4c0.4-0.2,1.1-0.4,1.2-0.6c0.2-0.4,0.2-2.9-0.1-5.1l-1.6-1.1
			c-0.2-0.1-0.3-0.3-0.3-0.5l-0.5-6.7c0-0.2,0-0.4,0.2-0.5C4,45,4.2,44.9,4.4,44.9l10.2,0.4c0.3,0,0.6,0.3,0.6,0.6l1.4,18.5
			c0,0.2,0,0.4-0.2,0.5C16.4,65,16.3,65.1,16.1,65.1z M3.6,63.8h11.8l-1.3-17.3l-9-0.3l0.5,5.6l1.6,1.1c0.2,0.1,0.2,0.3,0.3,0.5
			c0.2,1.5,0.5,5.2-0.1,6.2c-0.3,0.5-1,0.8-1.9,1.1c-0.8,0.3-1.8,0.7-1.8,1.2L3.6,63.8L3.6,63.8z"/>
	</g>
	<g>
		<path d="M20.6,45.9l0.5-1.6c0,0-0.7-8.3-1.3-9.5s-11.3-4.2-15-2.6c-3.8,1.6-4.1,4-4.1,4L1,45.7c0,0,0,1.1,1.3,1.4
			S20.6,45.9,20.6,45.9z"/>
		<path d="M3.1,47.8c-0.5,0-0.8,0-1-0.1c-1.4-0.4-1.7-1.5-1.7-2.1L0,36.2v-0.1c0-0.1,0.5-2.7,4.5-4.4c2.5-1.1,7.2-0.3,9.1,0.1
			c0.6,0.1,6.2,1.3,6.8,2.7c0.6,1.3,1.2,8.9,1.3,9.7c0,0.1,0,0.2,0,0.3l-0.5,1.6c-0.1,0.2-0.3,0.4-0.5,0.4
			C18.1,46.8,6.7,47.8,3.1,47.8z M1.3,36.2l0.4,9.4c0,0.1,0.1,0.6,0.8,0.8c1,0.2,11.2-0.6,17.7-1.2l0.4-1.1
			c-0.3-3.2-0.8-8.4-1.2-9.2C18.4,34,8.5,31.3,5,32.8C1.9,34.1,1.4,35.9,1.3,36.2z M20.6,45.9L20.6,45.9L20.6,45.9z"/>
	</g>
	<g>
		<path d="M9.8,32c0,0-0.9,0.7-1.6,1.6c-0.7,0.9-0.1,3.5-0.9,3.8s-6.6,0.7-6.6,0.7"/>
		<path d="M0.6,38.7c-0.3,0-0.6-0.3-0.6-0.6c0-0.4,0.2-0.7,0.6-0.7C3,37.3,6.5,37,7,36.8c0-0.1,0.1-0.8,0.1-1.2
			c0.1-0.9,0.1-1.7,0.5-2.3c0.7-1,1.7-1.7,1.8-1.8c0.3-0.2,0.7-0.1,0.9,0.1s0.1,0.7-0.1,0.9c0,0-0.9,0.6-1.5,1.5
			c-0.2,0.3-0.3,1-0.3,1.7c-0.1,1-0.1,2.1-1,2.4C6.6,38.3,1.7,38.6,0.6,38.7C0.7,38.7,0.7,38.7,0.6,38.7z"/>
	</g>
	<g>
		<path class="st0" d="M109,65.5c-35.2,0-84.4-0.5-87.5-0.5c-0.4,0-0.7-0.2-0.8-0.6l-4.9-14.1c-0.1-0.3,0-0.6,0.1-0.8l2.7-3.3
			c0.2-0.2,0.4-0.3,0.6-0.3c6.5-0.2,159-5.7,163.8-5.1c0.3,0,0.6,0.3,0.7,0.6c0.1,0.3,0,0.7-0.3,0.9c-2.7,2.1-16.1,12.6-17.3,13.2
			l-0.6,0.3c-10.3,5.3-17.8,8.5-21.6,9.2C141.9,65.3,127.3,65.5,109,65.5z M22.1,63.2c9,0.1,115.7,1.1,121.6,0
			c2.6-0.5,8.3-2.4,21.1-9l0.6-0.3c0.8-0.4,9-6.8,15.1-11.5c-16.2,0.1-109.8,3.3-160.8,5.2l-2.1,2.6L22.1,63.2z"/>
	</g>
	<path class="st0" d="M97.9,27c-0.6,0-1-0.4-1.1-1L95,3.5c0-0.6,0.4-1.1,1-1.2c0.6,0,1.1,0.4,1.2,1L99,25.8
		C99.1,26.4,98.6,26.9,97.9,27C98,27,98,27,97.9,27z"/>
	<path class="st0" d="M105.2,27.9c-0.5,0-1-0.4-1.1-0.9l-4-23.2c-0.1-0.6,0.3-1.1,0.9-1.2s1.1,0.3,1.2,0.9l4,23.2
		C106.3,27.3,105.9,27.8,105.2,27.9C105.3,27.9,105.2,27.9,105.2,27.9z"/>
	<g>
		<line x1="83.7" y1="33.3" x2="86.8" y2="34.5"/>
		<path d="M86.8,34.8L86.8,34.8l-3.2-1.2c-0.2-0.1-0.3-0.3-0.2-0.5c0.1-0.2,0.3-0.3,0.5-0.2l3.1,1.2c0.2,0.1,0.3,0.3,0.2,0.5
			C87,34.8,86.9,34.8,86.8,34.8z"/>
	</g>
	<g>
		<line x1="86.8" y1="30.4" x2="88.5" y2="34"/>
		<path d="M88.5,34.3c-0.1,0-0.3-0.1-0.3-0.2l-1.8-3.6c-0.1-0.2,0-0.4,0.2-0.5s0.4,0,0.5,0.2l1.8,3.6c0.1,0.2,0,0.4-0.2,0.5
			C88.6,34.3,88.6,34.3,88.5,34.3z"/>
	</g>
	<g>
		<line x1="90.7" y1="30.2" x2="90" y2="33"/>
		<path d="M90,33.4L90,33.4c-0.3-0.1-0.4-0.2-0.3-0.4l0.6-2.8c0-0.2,0.2-0.3,0.4-0.3c0.2,0,0.3,0.2,0.3,0.4l-0.6,2.8
			C90.4,33.3,90.2,33.4,90,33.4z"/>
	</g>
	<path d="M82.4,33.8c-0.6,0-1-0.2-1.2-0.5C80.7,32,84,30.4,86,29.5c2-0.8,5.4-2.1,6-0.8c0.3,0.7-0.6,1.4-1.4,1.9
		c-0.9,0.6-2.1,1.2-3.4,1.8C85.8,33,83.8,33.8,82.4,33.8z M90.4,29.4c-0.8,0.1-2.1,0.5-4,1.2c-1.9,0.8-3.1,1.5-3.7,2
		c0.8-0.1,2.1-0.5,4-1.2C88.6,30.6,89.8,29.8,90.4,29.4z"/>
	<path d="M82.4,33.9c-0.6,0-1.1-0.2-1.3-0.6c-0.5-1.3,2.3-2.8,4.8-3.8s5.6-2,6.1-0.8c0.3,0.8-0.6,1.5-1.4,2.1
		c-0.9,0.6-2.1,1.2-3.4,1.8C85.6,33.2,83.7,33.9,82.4,33.9z M90.1,29.5c-0.8,0.2-2,0.5-3.6,1.2s-2.7,1.3-3.4,1.8
		c0.8-0.2,2-0.5,3.6-1.2C88.3,30.6,89.4,30,90.1,29.5z"/>
	<ellipse transform="matrix(0.9212 -0.389 0.389 0.9212 -5.295 36.2589)" cx="86.9" cy="31.2" rx="2.1" ry="0.4"/>
	<path class="st0" d="M85.3,38.3c-0.6,0-1.1-0.5-1.1-1.1c-0.1-7.7-0.3-22.7-0.6-24.7c-0.2-1.9-1.7-2.6-2-2.6l0,0
		c-0.4,0-5.4-1.1-14.7-3.4c-0.6-0.1-0.9-0.7-0.8-1.3s0.7-0.9,1.3-0.8C72.6,5.7,81,7.7,81.8,7.8l0,0c1.2,0,3.6,1.6,4,4.5
		c0.3,2.6,0.6,24,0.6,24.9C86.3,37.8,85.9,38.3,85.3,38.3L85.3,38.3z"/>
	<g>
		<path d="M83.3,42.4l0.8-6.1l6.8-2.9c0,0,3.2-7.6,3.8-7.8c0.6-0.2,11.4,1,11.4,1l3.8,15L83.3,42.4z"/>
		<path d="M83.3,43.3c-0.2,0-0.5-0.1-0.6-0.3c-0.2-0.2-0.2-0.4-0.2-0.7l0.8-6.1c0-0.3,0.2-0.6,0.5-0.7l6.5-2.7
			c3.3-7.6,3.8-7.8,4.2-8c0.2-0.1,0.8-0.2,11.8,0.9c0.4,0,0.7,0.3,0.7,0.6l3.8,15c0.1,0.3,0,0.5-0.1,0.7c-0.2,0.2-0.4,0.3-0.7,0.3
			L83.3,43.3L83.3,43.3z M84.9,36.9l-0.6,4.6l24.5-0.7l-3.4-13.4c-4.4-0.5-9.1-0.9-10.3-0.9c-0.6,0.9-2.1,4.3-3.4,7.3
			c-0.1,0.2-0.3,0.4-0.5,0.5L84.9,36.9z"/>
	</g>
	<g>
		<path d="M110.9,1.6L66.4,3.7c0,0-6.3-0.2-6.1,0.6s0.2,1.3,2.1,1.7c1.9,0.4,51.5-0.6,51.5-0.6s5.3-0.6,5.3-1.7s-5.7-2.1-5.7-2.1
			S110.9,1.6,110.9,1.6z"/>
		<path class="st0" d="M67.1,6.7c-2.7,0-4.5,0-4.8-0.1c-2-0.4-2.3-1.1-2.6-2V4.5c-0.1-0.2,0-0.5,0.2-0.7s0.7-0.9,6.6-0.7L110.9,1
			h2.8c4.1,0.7,6.2,1.6,6.2,2.7s-2,1.9-5.9,2.4C109.8,6.2,79.2,6.7,67.1,6.7z M61,4.6c0.1,0.4,0.4,0.6,1.5,0.8
			C64,5.7,94,5.2,113.9,4.8c2-0.2,4-0.7,4.6-1.1c-0.6-0.4-2.8-1.1-5-1.4h-2.6L66.4,4.4C64.3,4.3,61.9,4.4,61,4.6z M60.9,4.1
			L60.9,4.1C60.9,4.2,60.9,4.2,60.9,4.1z"/>
	</g>
	<path d="M66.9,43.7c-0.6,0-1-0.4-1.1-1l-0.4-6.3c0-0.6,0.4-1.1,1-1.1s1.1,0.4,1.1,1l0.4,6.3C68,43.2,67.5,43.7,66.9,43.7L66.9,43.7
		z"/>
	<path d="M74.1,43.7c-0.6,0-1-0.4-1.1-1l-0.4-6.3c0-0.6,0.4-1.1,1-1.1s1.1,0.4,1.1,1l0.4,6.3C75.2,43.2,74.8,43.7,74.1,43.7
		C74.2,43.7,74.2,43.7,74.1,43.7z"/>
	<path d="M65.6,35.3c-0.3,0-0.6-0.2-0.8-0.5l-3-6c-0.2-0.4,0-0.9,0.4-1.1s0.9,0,1.1,0.4l3,6c0.2,0.4,0,0.9-0.4,1.1
		C65.8,35.2,65.7,35.3,65.6,35.3z"/>
	<g>
		<path d="M17.8,44.2l-2.4,2.7l1.5,4.2l2.6-3l163-5.1c0,0,2.7-1.4,2.6-2.1c-0.1-0.7-1.1-1.3-2.6-1.3C181.1,39.5,17.8,44.2,17.8,44.2
			z"/>
		<path d="M17,51.8h-0.1c-0.3,0-0.5-0.2-0.6-0.5l-1.5-4.2c-0.1-0.3,0-0.5,0.1-0.8l2.4-2.7c0.1-0.2,0.3-0.2,0.5-0.2
			c6.7-0.2,163.3-4.7,164.7-4.7c1.7,0,3.1,0.8,3.3,1.9c0.1,0.3,0.3,1.3-3,3c-0.1,0.1-0.2,0.1-0.3,0.1L19.9,48.8l-2.4,2.7
			C17.4,51.7,17.2,51.8,17,51.8z M16.3,47.1l0.9,2.6l1.7-2c0.1-0.2,0.3-0.3,0.5-0.3l162.8-5.1c0.9-0.5,1.7-1.1,2-1.4
			c-0.2-0.2-0.8-0.6-1.8-0.6C181,40.3,26.2,44.8,18,45L16.3,47.1z"/>
	</g>
	<g>
		<path d="M75.3,37.6l-9.9,1.3c-1.1,0.1-2.1-0.6-2.3-1.7v-0.1C63,36,63.7,35,64.8,34.8l9.9-1.3c1.1-0.1,2.1,0.6,2.3,1.7v0.1
			C77.2,36.4,76.4,37.4,75.3,37.6z"/>
		<path d="M65.2,39.5c-0.6,0-1.1-0.2-1.6-0.6c-0.6-0.4-0.9-1.1-1-1.8V37c-0.1-0.7,0.1-1.4,0.5-2s1.1-0.9,1.8-1l9.9-1.3
			c1.4-0.2,2.8,0.8,3,2.3v0.1c0.2,1.4-0.8,2.8-2.3,3l-9.9,1.3C65.4,39.5,65.3,39.5,65.2,39.5z M75.1,34.1c-0.1,0-0.1,0-0.2,0
			L65,35.4c-0.4,0-0.7,0.2-0.9,0.5c-0.2,0.3-0.3,0.7-0.3,1V37c0,0.4,0.2,0.7,0.5,0.9s0.7,0.3,1,0.3l9.9-1.3l0,0
			c0.8-0.1,1.3-0.8,1.2-1.6v-0.1C76.4,34.6,75.8,34.1,75.1,34.1z"/>
	</g>
	<g>
		<path d="M63.5,31.7L63.5,31.7c-1.1,0.1-2.1-0.7-2.2-1.7l-0.5-3.8c-0.1-1.1,0.7-2.1,1.7-2.2l0,0c1.1-0.1,2.1,0.7,2.2,1.7l0.5,3.8
			C65.4,30.5,64.6,31.5,63.5,31.7z"/>
		<path d="M63.2,32.3c-0.6,0-1.1-0.2-1.6-0.6c-0.6-0.4-0.9-1.1-1-1.7l-0.5-3.8c-0.1-0.7,0.1-1.4,0.5-1.9c0.4-0.6,1.1-0.9,1.7-1
			c0.7-0.1,1.4,0.1,1.9,0.5c0.6,0.4,0.9,1.1,1,1.7l0.5,3.8c0.2,1.4-0.9,2.7-2.3,2.9l0,0C63.5,32.3,63.3,32.3,63.2,32.3z M63.5,31.7
			L63.5,31.7L63.5,31.7z M62.8,24.5c-0.1,0-0.1,0-0.2,0c-0.4,0-0.7,0.2-0.9,0.5s-0.3,0.6-0.3,1l0.5,3.8c0,0.4,0.2,0.7,0.5,0.9
			c0.3,0.2,0.6,0.3,1,0.3c0.7-0.1,1.3-0.8,1.2-1.5l-0.5-3.8C64.1,25,63.5,24.5,62.8,24.5z"/>
	</g>
	<path class="st0" d="M56.3,54.2h-0.1l-8.9-3.1L19.2,53c-0.2,0-0.4-0.2-0.4-0.4s0.2-0.4,0.4-0.4l28.2-2c0.1,0,0.1,0,0.2,0l8.9,3.1
		c2.6-0.1,64.8-2.3,77.3-3.7c13.1-1.4,40.5-4.9,43.3-4.9c0.2,0,0.4,0.1,0.5,0.4c0,0.2-0.1,0.4-0.4,0.5c-0.3,0-30.6,3.5-43.3,4.9
		C121,51.9,56.9,54.2,56.3,54.2L56.3,54.2z"/>
	<path class="st1" d="M22.1,61.1c-0.2,0-0.4-0.2-0.4-0.4s0.2-0.4,0.4-0.4l52.6-1.1l2.5-1.9c0.1-0.1,0.2-0.1,0.2-0.1l6.6-0.3
		c0.1,0,0.3,0,0.3,0.1c0.1,0.1,0.1,0.2,0.1,0.3l-0.2,1.5c27.2-0.7,84.1-8.7,84.7-8.8c0.2,0,0.5,0.1,0.5,0.4c0,0.2-0.1,0.5-0.4,0.5
		c-4.2,0.7-58.1,8.3-85.3,8.8c-0.1,0-0.2,0-0.3-0.1c-0.1-0.1-0.1-0.2-0.1-0.3l0.2-1.5l-5.9,0.3L75.1,60c-0.1,0.1-0.2,0.1-0.3,0.1
		L22.1,61.1L22.1,61.1z"/>
	<path class="st0" d="M85,16.1c-0.5,0-0.9-0.3-1-0.8c-0.1-0.6,0.2-1.2,0.8-1.3l12-2.9c0.6-0.1,1.2,0.2,1.3,0.8
		c0.1,0.6-0.2,1.2-0.8,1.3l-12,2.9C85.2,16.1,85.1,16.1,85,16.1z"/>
	<path d="M62.9,8.2c-0.3,0-0.6-0.2-0.7-0.5l-2.3-5.3c-0.2-0.4,0-0.8,0.4-1s0.8,0,1,0.4l2.3,5.3c0.2,0.4,0,0.8-0.4,1
		C63.1,8.2,63,8.2,62.9,8.2z"/>
	<path d="M66.5,8.1c-0.3,0-0.6-0.2-0.7-0.5l-2.3-5.3c-0.2-0.4,0-0.8,0.4-1c0.4-0.2,0.8,0,1,0.4L67.2,7c0.2,0.4,0,0.8-0.4,1
		C66.7,8.1,66.6,8.1,66.5,8.1z"/>
	<path d="M70.1,8c-0.3,0-0.6-0.2-0.7-0.5l-2.3-5.3c-0.2-0.4,0-0.8,0.4-1s0.8,0,1,0.4L70.8,7c0.2,0.4,0,0.8-0.4,1
		C70.3,8,70.2,8,70.1,8z"/>
	<path d="M73.7,7.9c-0.3,0-0.6-0.2-0.7-0.5l-2.3-5.3c-0.2-0.4,0-0.8,0.4-1s0.8,0,1,0.4l2.3,5.3c0.2,0.4,0,0.8-0.4,1
		C73.9,7.9,73.8,7.9,73.7,7.9z"/>
</g>
</svg>
