<?xml version="1.0" encoding="utf-8"?>
<!-- Generator: Adobe Illustrator 23.0.1, SVG Export Plug-In . SVG Version: 6.00 Build 0)  -->
<svg version="1.1" id="Capa_1" xmlns="http://www.w3.org/2000/svg" xmlns:xlink="http://www.w3.org/1999/xlink" x="0px" y="0px"
	 viewBox="0 0 512 198" style="enable-background:new 0 0 512 198;" xml:space="preserve">
<style type="text/css">
	.st0{fill:#5AA096;}
	.st1{fill:#E6E6E6;}
	.st2{fill:#6E6E6E;}
	.st3{fill:#AAAAA0;}
	.st4{fill:#41AA5F;}
</style>
<path class="st0" d="M90,157.8c0,16.6,13.4,30.1,30,30.1h266.6c19.2,0,36.8-10.9,45.4-28.2l6-12H90V157.8z"/>
<polygon class="st1" points="90,67.5 90,147.8 438,147.8 478,67.5 "/>
<rect x="10" y="27.3" class="st2" width="40" height="90.4"/>
<rect x="50" y="27.3" class="st3" width="40" height="60.2"/>
<polygon class="st4" points="478,67.5 290,67.5 322,27.3 502,27.3 "/>
<path d="M510.7,22.4c-1.8-3.1-5.1-5.1-8.7-5.1H322c-3,0-5.9,1.4-7.8,3.8l-12.4,15.5l-17.9-18c4.3-4.3,6.3-10.7,1.4-15.6
	c-3.9-3.9-10.2-3.9-14.1,0l-17,17c-3.9,3.9-3.9,10.3,0,14.2c4.8,4.8,11.2,3,15.6-1.4l19.5,19.6l-4.1,5.1H100V37.4c0,0,11,0,11,0
	c12.9,0,13-20.1,0-20.1H10c-5.5,0-10,4.5-10,10v90.3c0,5.5,4.5,10,10,10h10c0,0,0,60,0,60.2c0,12.7,20,13,20,0v-60.2h10
	c5.5,0,10-4.5,10-10V97.6h20v60.2C80,180,97.9,198,120,198h266.6c23.2,0,44-12.9,54.3-33.7l45.8-92l23.8-39.8
	C512.4,29.4,512.5,25.5,510.7,22.4z M40,107.7H20V37.4h20V107.7z M326.8,37.4h157.5l-12,20.1H310.9
	C311.1,57.2,326.8,37.4,326.8,37.4z M451.8,97.6H398c-5.5,0-10,4.5-10,10c0,5.5,4.5,10,10,10h43.8l-10,20.1H100V77.5h361.8
	L451.8,97.6z M60,77.5V37.4h20v39.2v0.9L60,77.5L60,77.5z M386.6,177.9H120c-11,0-20-9-20-20.1h321.7
	C414.4,170.3,401.2,177.9,386.6,177.9z"/>
<path d="M358,117.7c5.5,0,10-4.5,10-10c0-5.5-4.5-10-10-10s-10,4.5-10,10C348,113.2,352.5,117.7,358,117.7z"/>
<path d="M151,37.4c5.5,0,10-4.5,10-10c0-5.5-4.5-10-10-10s-10,4.5-10,10C141,32.9,145.5,37.4,151,37.4z"/>
</svg>
