<?xml version="1.0" encoding="utf-8"?>
<!-- Generator: Adobe Illustrator 23.0.1, SVG Export Plug-In . SVG Version: 6.00 Build 0)  -->
<svg version="1.1" id="Layer_1" xmlns="http://www.w3.org/2000/svg" xmlns:xlink="http://www.w3.org/1999/xlink" x="0px" y="0px"
	 viewBox="0 0 456 304" style="enable-background:new 0 0 456 304;" xml:space="preserve">
<style type="text/css">
	.st0{fill:#41AA5F;}
	.st1{fill:#5AA096;}
	.st2{fill:#AAAAA0;}
	.st3{fill:#6E6E6E;}
	.st4{fill:#E6E6E6;}
</style>
<path class="st0" d="M13.4,266.9L8,208l440-32l-86.4,108c-6.1,7.6-15.3,12-25,12H45.3C28.7,296,14.9,283.3,13.4,266.9z"/>
<path class="st1" d="M355.1,182.7L256,96H80L56.8,204.4L355.1,182.7z"/>
<path class="st2" d="M186.3,51.1L104,96h128l-35.9-43C193.7,50.1,189.6,49.3,186.3,51.1z"/>
<path class="st3" d="M124.8,15.2L96,8l8,88l54.2-29.6l-28.6-47.6C128.6,17,126.9,15.7,124.8,15.2z"/>
<path class="st4" d="M232,136v16c0,4.4-3.6,8-8,8h-16c-4.4,0-8-3.6-8-8v-16c0-4.4,3.6-8,8-8h16C228.4,128,232,131.6,232,136z"/>
<path class="st4" d="M11.2,243.1l406.6-29.5L448,176L8,208L11.2,243.1z"/>
<path class="st4" d="M66.3,160H160c4.4,0,8-3.6,8-8v-16c0-4.4-3.6-8-8-8H73.2L66.3,160z"/>
<path class="st4" d="M272,160h57.1l-36.6-32H272c-4.4,0-8,3.6-8,8v16C264,156.4,267.6,160,272,160z"/>
<g>
	<path d="M0,208.7l5.4,58.9c1.8,20.7,19.1,36.5,39.9,36.4h291.3c12.2,0,23.7-5.5,31.3-15l86.4-108c2-2.5,2.3-5.9,0.8-8.7
		c-1.5-2.8-4.5-4.5-7.7-4.2l-89.5,6.5L261.3,90c-1.5-1.3-3.3-2-5.3-2h-20.3l-33.5-40.1c-4.9-5.8-13.1-7.4-19.8-3.8l-21.4,11.6
		l-24.6-41c-2.2-3.6-5.7-6.2-9.8-7.2L97.9,0.2c-2.5-0.6-5.2,0-7.1,1.7c-2,1.7-3,4.2-2.8,6.8L95.2,88H80c-3.8,0-7,2.6-7.8,6.3
		l-6.9,32l-4.6,21.6l-10.5,49L7.4,200c-2.1,0.2-4.1,1.2-5.5,2.8C0.5,204.4-0.2,206.6,0,208.7z M79.6,136H160v16H76.2L79.6,136z
		 M147.1,63.4l-25.2,13.8l-11,6L105,18.5l17.9,4.5L147.1,63.4z M214.9,88h-79.5l26.7-14.6l28-15.3L214.9,88z M271.4,120
		c-8.6,0.3-15.4,7.4-15.4,16v16c0,8.8,7.2,16,16,16h54.1l9.3,8.2L66.9,195.7l5.9-27.7H160c8.8,0,16-7.2,16-16v-16
		c0-8.8-7.2-16-16-16h-77l3.4-16H253L271.4,120z M302.4,147.2l5.5,4.8H272v-16h17.6L302.4,147.2z M16.7,215.4l413.6-30.1L355.4,279
		c-4.5,5.7-11.5,9-18.7,9H45.3c-12.4,0.1-22.8-9.4-23.9-21.8L16.7,215.4z"/>
	<path d="M336,256c4.4,0,8,3.6,8,8s-3.6,8-8,8s-8-3.6-8-8S331.6,256,336,256z"/>
	<path d="M296,256c4.4,0,8,3.6,8,8s-3.6,8-8,8c-4.4,0-8-3.6-8-8S291.6,256,296,256z"/>
	<path d="M256,256c4.4,0,8,3.6,8,8s-3.6,8-8,8s-8-3.6-8-8S251.6,256,256,256z"/>
	<path d="M240,152v-16c0-8.8-7.2-16-16-16h-16c-8.8,0-16,7.2-16,16v16c0,8.8,7.2,16,16,16h16C232.8,168,240,160.8,240,152z M224,152
		h-16v-16h16V152z"/>
</g>
</svg>
