<?xml version="1.0" encoding="utf-8"?>
<!-- Generator: Adobe Illustrator 23.0.1, SVG Export Plug-In . SVG Version: 6.00 Build 0)  -->
<svg version="1.1" id="Capa_1" xmlns="http://www.w3.org/2000/svg" xmlns:xlink="http://www.w3.org/1999/xlink" x="0px" y="0px"
	 viewBox="0 0 80.1 80.1" style="enable-background:new 0 0 80.1 80.1;" xml:space="preserve">
<style type="text/css">
	.st0{fill:#FFFFFF;}
</style>
<g>
	<g>
		<path d="M60.3,41.5c5.9,0,10.7-4.8,10.7-10.7s-4.8-10.7-10.7-10.7s-10.7,4.8-10.7,10.7S54.4,41.5,60.3,41.5z M64.9,42.2h-9.1
			c-7.6,0-13.7,6.2-13.7,13.7v11.1l0,0.2l0.8,0.2c7.2,2.3,13.5,3,18.7,3c10.1,0,15.9-2.9,16.3-3.1l0.7-0.4h0.1V56
			C78.6,48.4,72.5,42.2,64.9,42.2z"/>
	</g>
</g>
<g>
	<g>
		<path d="M50.1,76.3c-6.1,0-12.5-1-19-3.1l-1.4-0.4L29.6,72V60.7c0-7.9,6.2-14.3,14-14.7c-3.8-1.9-6.5-5.9-6.5-10.5
			c0-6.5,5.3-11.7,11.7-11.7c6.5,0,11.7,5.3,11.7,11.7c0,4.6-2.6,8.5-6.5,10.5c3.7,0.2,7.1,1.7,9.7,4.3c2.8,2.8,4.3,6.5,4.3,10.4
			v12.1h-0.8l-0.5,0.3C66.6,73.3,60.5,76.3,50.1,76.3z"/>
		<path class="st0" d="M48.9,24.8c5.9,0,10.7,4.8,10.7,10.7c0,5.9-4.8,10.7-10.7,10.7c-5.9,0-10.7-4.8-10.7-10.7S43,24.8,48.9,24.8
			 M53.5,47c7.6,0,13.7,6.2,13.7,13.7v11.1h-0.1l-0.7,0.4c-0.4,0.2-6.2,3.1-16.3,3.1c-5.2,0-11.4-0.8-18.7-3l-0.8-0.2l0-0.2V60.7
			c0-7.6,6.2-13.7,13.7-13.7H53.5 M48.9,22.8c-7,0-12.7,5.7-12.7,12.7c0,4,1.8,7.5,4.7,9.8c-7,1.6-12.2,7.9-12.2,15.3v11.1V72l0,0.2
			l0,0.2l0.2,1.2l1.2,0.4l0.8,0.2c6.6,2.1,13.1,3.1,19.3,3.1c10.5,0,16.5-2.9,17.2-3.3l0.3-0.1h1.6v-2V60.7c0-4.2-1.6-8.1-4.6-11.1
			c-2.1-2.1-4.8-3.6-7.6-4.2c2.9-2.3,4.7-5.9,4.7-9.8C61.6,28.5,55.9,22.8,48.9,22.8L48.9,22.8z"/>
	</g>
</g>
<g>
	<g>
		<path d="M19.9,46.9c5.9,0,10.7-4.8,10.7-10.7s-4.8-10.7-10.7-10.7S9.2,30.2,9.2,36.2S14,46.9,19.9,46.9z M24.5,47.6h-9.1
			c-7.6,0-13.7,6.2-13.7,13.7v11.1l0,0.2l0.8,0.2c7.2,2.3,13.5,3,18.7,3c10.1,0,15.9-2.9,16.3-3.1l0.7-0.4h0.1V61.4
			C38.2,53.8,32,47.6,24.5,47.6z"/>
	</g>
</g>
<g>
	<g>
		<path d="M34,78.5c-6.1,0-12.5-1-19-3.1L13.7,75l-0.1-0.9V62.9c0-7.9,6.2-14.3,14-14.7c-3.8-1.9-6.5-5.9-6.5-10.5
			c0-6.5,5.3-11.7,11.7-11.7c6.5,0,11.7,5.3,11.7,11.7c0,4.6-2.6,8.5-6.5,10.5c3.7,0.2,7.1,1.7,9.7,4.3c2.8,2.8,4.3,6.5,4.3,10.4V75
			h-0.8l-0.5,0.3C50.5,75.4,44.4,78.5,34,78.5z"/>
		<path class="st0" d="M32.8,27c5.9,0,10.7,4.8,10.7,10.7c0,5.9-4.8,10.7-10.7,10.7c-5.9,0-10.7-4.8-10.7-10.7S26.9,27,32.8,27
			 M37.4,49.2c7.6,0,13.7,6.2,13.7,13.7V74H51l-0.7,0.4c-0.4,0.2-6.2,3.1-16.3,3.1c-5.2,0-11.4-0.8-18.7-3l-0.8-0.2l0-0.2V62.9
			c0-7.6,6.2-13.7,13.7-13.7H37.4 M32.8,25c-7,0-12.7,5.7-12.7,12.7c0,4,1.8,7.5,4.7,9.8c-7,1.6-12.2,7.9-12.2,15.3V74v0.2l0,0.2
			l0,0.2l0.2,1.2l1.2,0.4l0.8,0.2c6.6,2.1,13.1,3.1,19.3,3.1c10.5,0,16.5-2.9,17.2-3.3l0.3-0.1h1.6v-2V62.9c0-4.2-1.6-8.1-4.6-11.1
			c-2.1-2.1-4.8-3.6-7.6-4.2c2.9-2.3,4.7-5.9,4.7-9.8C45.5,30.7,39.8,25,32.8,25L32.8,25z"/>
	</g>
</g>
</svg>
