<?xml version="1.0" encoding="utf-8"?>
<!-- Generator: Adobe Illustrator 23.0.2, SVG Export Plug-In . SVG Version: 6.00 Build 0)  -->
<svg version="1.1" id="Layer_1" xmlns="http://www.w3.org/2000/svg" xmlns:xlink="http://www.w3.org/1999/xlink" x="0px" y="0px"
	 viewBox="0 0 185.8 64.5" style="enable-background:new 0 0 185.8 64.5;" xml:space="preserve">
<style type="text/css">
	.st0{stroke:#000000;stroke-width:2;stroke-miterlimit:10;}
	.st1{stroke:#000000;stroke-width:3;stroke-miterlimit:10;}
	.st2{stroke:#000000;stroke-width:0.75;stroke-miterlimit:10;}
	.st3{stroke:#000000;stroke-miterlimit:10;}
	.st4{stroke:#000000;stroke-width:3;stroke-linecap:round;stroke-linejoin:round;stroke-miterlimit:10;}
</style>
<g>
	<line x1="79.8" y1="20.8" x2="82.4" y2="21.8"/>
	<path d="M82.4,22.1L82.4,22.1l-2.7-1c-0.2-0.1-0.2-0.2-0.2-0.4c0.1-0.2,0.2-0.2,0.4-0.2l2.6,1c0.2,0.1,0.2,0.2,0.2,0.4
		C82.6,22,82.5,22.1,82.4,22.1z"/>
	<line x1="82.2" y1="18.8" x2="83.7" y2="21.8"/>
	<path d="M83.7,22.1c-0.1,0-0.2-0.1-0.3-0.2l-1.5-3.1c-0.1-0.2,0-0.3,0.1-0.4s0.3,0,0.4,0.1l1.5,3.1c0.1,0.2,0,0.3-0.1,0.4
		C83.8,22.1,83.8,22.1,83.7,22.1z"/>
	<line x1="84.8" y1="18.6" x2="84.3" y2="21"/>
	<path d="M84.3,21.3C84.3,21.3,84.2,21.3,84.3,21.3c-0.2,0-0.3-0.2-0.3-0.4l0.5-2.4c0-0.2,0.2-0.3,0.4-0.2c0.2,0,0.3,0.2,0.2,0.4
		L84.6,21C84.6,21.2,84.4,21.3,84.3,21.3z"/>
	<path class="st0" d="M123.1,64.5c-37.6,0-90.5-1-93.9-1.1c-0.2,0-0.4-0.2-0.5-0.4l-2.4-9.7h-0.7c0,0-0.6,0.1-1.1-0.4
		c-0.4-0.4-0.6-1.1-0.4-2c0.1-0.9,0.8-1.3,1.1-1.4h0.1l145-0.9l0,0c0.2,0,0.3,0.1,0.4,0.2c0.1,0.1,0.1,0.3,0,0.5
		c-0.2,0.5-5.7,11.5-10.6,14C158.4,64.2,142.9,64.5,123.1,64.5z M29.6,62.4c35.3,0.7,126.2,2.1,130.1,0c3.9-2.1,8.5-10.3,9.8-12.9
		L25.4,50.4c-0.1,0.1-0.3,0.2-0.4,0.6c-0.1,0.8,0,1,0.1,1.1s0.4,0.1,0.4,0.1h1.2c0.2,0,0.4,0.2,0.5,0.4L29.6,62.4z"/>
	<path class="st0" d="M39.4,49.6c-0.5,0-0.9-0.4-1-0.9c0-0.1-1.7-11.1-2.2-13.6c-0.4-2-4.9-11.7-6.6-15.2c-0.2-0.5,0-1.1,0.5-1.3
		c0.5-0.2,1.1,0,1.3,0.5c0.6,1.3,6.3,13.1,6.8,15.7c0.5,2.5,2.1,13.2,2.2,13.7c0.1,0.5-0.3,1.1-0.8,1.1
		C39.5,49.6,39.4,49.6,39.4,49.6z"/>
	<path class="st0" d="M54.3,49.5c-0.5,0-0.9-0.4-1-0.9C51.8,35.2,43.1,20.2,43,20.1c-0.3-0.5-0.1-1.1,0.4-1.4s1.1-0.1,1.4,0.4
		c0.4,0.6,9.1,15.5,10.6,29.3c0.1,0.5-0.3,1-0.9,1.1C54.4,49.5,54.3,49.5,54.3,49.5z"/>
	<path class="st1" d="M27.9,21.1c-1.1,0-2-0.9-2-2s0.9-2,2-2l20-0.2l0,0c1.1,0,2,0.9,2,2s-0.9,2-2,2L27.9,21.1L27.9,21.1z"/>
	<path class="st0" d="M50.4,36H37.5c-0.6,0-1-0.4-1-1s0.4-1,1-1h12.8c0.6,0,1,0.4,1,1S50.9,36,50.4,36z"/>
	<path d="M16.6,43.3l0.5,6.2l1.7,1.2c0,0,0.5,4.5,0,5.4c-0.5,0.8-3.5,1-3.5,2.5s0,2.4,0,2.4h12.3l-1.3-17.3L16.6,43.3z"/>
	<path d="M27.5,61.6H15.2c-0.3,0-0.6-0.3-0.6-0.6v-2.4c0-1.3,1.4-1.9,2.5-2.3c0.4-0.1,1-0.4,1.1-0.6c0.2-0.4,0.2-2.7-0.1-4.7l-1.5-1
		c-0.1-0.1-0.2-0.3-0.3-0.4L16,43.4c0-0.2,0-0.3,0.2-0.5c0.1-0.1,0.3-0.2,0.5-0.2l9.6,0.3c0.3,0,0.6,0.2,0.6,0.6L28.1,61
		c0,0.2,0,0.3-0.2,0.5C27.8,61.5,27.7,61.6,27.5,61.6z M15.8,60.4h11l-1.3-16.1L17.2,44l0.4,5.3l1.5,1c0.1,0.1,0.2,0.3,0.3,0.4
		c0.2,1.4,0.5,4.8-0.1,5.8c-0.3,0.5-1,0.8-1.7,1.1c-0.8,0.3-1.7,0.7-1.7,1.2L15.8,60.4L15.8,60.4z"/>
	<path d="M31.7,43.7l0.5-1.5c0,0-0.7-7.7-1.2-8.9c-0.5-1.2-10.6-3.9-14.1-2.4c-3.5,1.5-3.9,3.7-3.9,3.7l0.3,8.9c0,0,0,1,1.2,1.3
		S31.7,43.7,31.7,43.7z"/>
	<path d="M15.3,45.5c-0.5,0-0.8,0-0.9-0.1c-1.3-0.4-1.6-1.4-1.6-1.9l-0.3-8.9v-0.1c0-0.1,0.4-2.5,4.2-4.2c2.3-1,6.8-0.2,8.6,0.1
		c0.6,0.1,5.8,1.2,6.4,2.5c0.5,1.2,1.2,8.3,1.2,9.1c0,0.1,0,0.2,0,0.2l-0.5,1.5c-0.1,0.2-0.3,0.4-0.5,0.4
		C29.4,44.5,18.7,45.5,15.3,45.5z M13.6,34.6l0.3,8.8c0,0.1,0.1,0.6,0.7,0.8c0.9,0.2,10.5-0.6,16.5-1.2l0.3-1
		c-0.3-3-0.8-7.8-1.1-8.6c-0.8-1-10.1-3.4-13.3-2C14.2,32.7,13.7,34.3,13.6,34.6z M31.7,43.7L31.7,43.7L31.7,43.7z"/>
	<path class="st0" d="M87.7,48.2c-0.4,0-0.7-0.3-0.8-0.7C86.4,41.2,81,32,80.9,32c-0.2-0.4-0.1-0.8,0.3-1s0.8-0.1,1,0.3
		s5.6,9.6,6.2,16.2C88.4,47.8,88.1,48.2,87.7,48.2L87.7,48.2z"/>
	<path class="st0" d="M93.4,48.2c-0.4,0-0.7-0.3-0.8-0.7C92.1,41.2,86.7,32,86.7,32c-0.2-0.4-0.1-0.8,0.3-1s0.8-0.1,1,0.3
		s5.6,9.6,6.2,16.2C94.2,47.8,93.8,48.2,93.4,48.2L93.4,48.2z"/>
	<path d="M88.8,34.6c-2.6,0-7.9-0.5-8.2-0.6c-0.2,0-0.4-0.2-0.4-0.5l-0.3-6.8c0-0.3,0.2-0.5,0.5-0.5l11.4-0.8c0.1,0,0.3,0,0.4,0.1
		s0.2,0.2,0.2,0.4v7.8c0,0.3-0.2,0.5-0.5,0.5c0,0-0.5,0-1.9,0.2C89.6,34.6,89.2,34.6,88.8,34.6z M81.2,33.1c2.3,0.2,7.4,0.7,8.5,0.5
		c0.8-0.1,1.3-0.2,1.6-0.2v-6.8L81,27.3L81.2,33.1z"/>
	<path d="M69.5,49.8c-1,0-1.8-0.7-2-1.7c-0.2-1.4-2.4-7.6-3.8-11.2c-0.4-1,0.1-2.2,1.2-2.6c1-0.4,2.2,0.1,2.6,1.2
		c0.6,1.6,3.6,9.7,4,12c0.2,1.1-0.6,2.1-1.7,2.3C69.7,49.8,69.6,49.8,69.5,49.8z"/>
	<path d="M57.4,33.3c0,0,1,3.7,2.9,4.2c1.8,0.5,11.4-0.2,11.4-0.2s2.5-3.4,2.2-4c-0.3-0.7-7.2-0.5-9.2,0.3s-3.5,1.3-3.7,0
		s-0.2-1.3-0.2-1.3L57.4,33.3z"/>
	<path d="M58.3,33.8c0.4,1.2,1.2,2.7,2.1,3c1.2,0.3,7,0.1,10.8-0.2c0.8-1.1,1.5-2.3,1.8-2.9c-1.5-0.3-6.5-0.1-8.1,0.6
		c-1.7,0.7-3,1.2-4,0.7c-0.3-0.2-0.7-0.5-0.8-1.3L60,33.2L58.3,33.8z"/>
	<path d="M57.2,21.1c0,0-1.8,1.3-1.5,2.2c0.3,0.8,1.8,10.8,1.8,10.8s3.9-0.5,4-3.4c0.2-2.9-2.4-6.2-2.4-6.2s-0.2-2.5-0.5-3
		C58.4,21,57.2,21.1,57.2,21.1z"/>
	<path d="M57.5,21.9c-0.6,0.4-1.1,1-1.1,1.2c0.3,0.7,1.4,7.4,1.8,10.1c1-0.3,2.6-1,2.7-2.5c0.2-2.6-2.2-5.7-2.2-5.7
		c-0.1-0.1-0.1-0.3-0.1-0.4c-0.1-1.1-0.2-2.4-0.4-2.7C58,21.9,57.8,21.9,57.5,21.9z"/>
	<path d="M106.2,48.3h-7.7c-1.5,0-2.8-1.3-2.8-2.8v-6.4c0-1.5,1.3-2.8,2.8-2.8h7.7c1.5,0,2.8,1.3,2.8,2.8v6.4
		C109,47,107.8,48.3,106.2,48.3z"/>
	<path d="M106.2,49h-7.7c-1.9,0-3.4-1.5-3.4-3.4v-6.4c0-1.9,1.5-3.4,3.4-3.4h7.7c1.9,0,3.4,1.5,3.4,3.4v6.4
		C109.7,47.4,108.1,49,106.2,49z M98.5,37c-1.2,0-2.1,1-2.1,2.1v6.4c0,1.2,1,2.1,2.1,2.1h7.7c1.2,0,2.1-1,2.1-2.1v-6.4
		c0-1.2-1-2.1-2.1-2.1H98.5z"/>
	<path d="M78.5,21.7c-0.5,0-0.9-0.1-1-0.5c-0.5-1.1,2.3-2.4,4-3.2c1.7-0.7,4.6-1.8,5.1-0.7c0.3,0.6-0.5,1.2-1.2,1.7s-1.8,1-2.9,1.5
		S79.6,21.7,78.5,21.7z M85.3,17.9c-0.6,0.1-1.8,0.4-3.4,1.1s-2.6,1.3-3.1,1.7c0.6-0.1,1.8-0.4,3.4-1.1C83.8,19,84.8,18.3,85.3,17.9
		z"/>
	<path class="st2" d="M78.5,21.8c-0.5,0-0.9-0.1-1.1-0.5c-0.5-1.1,2-2.4,4.1-3.3s4.7-1.7,5.2-0.7c0.3,0.7-0.5,1.3-1.2,1.8
		s-1.8,1-2.9,1.5C81.2,21.2,79.6,21.8,78.5,21.8z M85,18c-0.7,0.1-1.7,0.4-3.1,1c-1.3,0.6-2.3,1.1-2.9,1.5c0.7-0.1,1.7-0.4,3.1-1
		C83.5,19,84.5,18.4,85,18z"/>
	<path class="st3" d="M170.2,50.6H25.3c-0.3,0-0.6-0.3-0.6-0.6l-0.2-3.3c0-0.2,0.1-0.3,0.2-0.5c0.1-0.1,0.3-0.2,0.5-0.2l147.7-1.3
		c0.2,0,0.4,0.1,0.6,0.3c0.1,0.2,0.1,0.4,0,0.6l-2.6,4.6C170.6,50.4,170.4,50.6,170.2,50.6z M25.9,49.3h143.9l1.8-3.3L25.8,47.3
		L25.9,49.3z"/>
	<ellipse transform="matrix(0.9212 -0.389 0.389 0.9212 -1.1072 33.5506)" cx="82.3" cy="19.5" rx="1.8" ry="0.3"/>
	<path d="M13,37c-0.3,0-0.6-0.2-0.6-0.6c0-0.3,0.2-0.6,0.6-0.6c2.2-0.2,5.6-0.4,6-0.6c0-0.1,0.1-0.7,0.1-1.1c0-0.8,0.1-1.6,0.5-2.2
		c0.7-1,1.6-1.6,1.7-1.7c0.3-0.2,0.6-0.1,0.8,0.1s0.1,0.6-0.1,0.8c0,0-0.8,0.6-1.4,1.4c-0.2,0.3-0.2,1-0.3,1.6
		c-0.1,1-0.1,1.9-0.9,2.2C18.6,36.6,14,36.9,13,37C13.1,37,13,37,13,37z"/>
	<rect x="81.2" y="21.2" transform="matrix(0.2684 -0.9633 0.9633 0.2684 36.9214 96.1564)" width="1.1" height="5.2"/>
	<circle cx="79.3" cy="23" r="0.9"/>
	<path d="M82.3,25.4l5.8-0.4c0,0-0.2-3.5-1.1-3.9s-3.7,0-3.7,0S82,21.7,82,22.6C82.1,23.4,82.3,25.4,82.3,25.4z"/>
	<path d="M82.3,25.7c-0.1,0-0.3-0.1-0.3-0.3c0-0.1-0.2-2-0.2-2.8c0-1,1.3-1.7,1.5-1.8h0.1c0.3,0,2.9-0.4,3.8,0
		c1,0.5,1.2,3.5,1.2,4.1c0,0.2-0.1,0.3-0.3,0.3L82.3,25.7L82.3,25.7z M83.5,21.3c-0.3,0.2-1.1,0.7-1.1,1.2c0,0.6,0.1,1.9,0.2,2.5
		l5.3-0.4c-0.1-1.5-0.5-3.2-0.9-3.4C86.3,21,84.3,21.2,83.5,21.3z"/>
	<path d="M84.2,25.6c-0.1,0-0.2-0.1-0.2-0.2s-0.2-1.5-0.2-2.2c0-0.8,1-1.3,1.1-1.4c0,0,0,0,0.1,0c0.2,0,2.3-0.3,3,0
		c0.8,0.4,0.9,2.7,1,3.2c0,0.1-0.1,0.2-0.2,0.2L84.2,25.6L84.2,25.6z M85.1,22.2c-0.3,0.1-0.9,0.5-0.9,1s0.1,1.5,0.1,1.9l4.1-0.3
		c-0.1-1.2-0.4-2.4-0.7-2.6S85.9,22.1,85.1,22.2z"/>
	<path d="M91.9,24.1l-11.8,0.7c-0.4,0.1-0.7,0.2-1,0.5c-0.3,0.3-0.4,0.6-0.4,1c0,0.4,0.2,0.7,0.5,1c0.2,0.3,0.6,0.4,0.9,0.4l12-0.8
		c0.7-0.1,1.3-0.7,1.3-1.5C93.3,24.7,92.7,24.1,91.9,24.1z M91.9,26.5l-11.8,0.7c-0.5,0-0.9-0.4-1-0.9c0-0.5,0.4-0.9,0.9-1l11.8-0.7
		c0.5,0,0.9,0.4,1,0.9C92.8,26.1,92.4,26.5,91.9,26.5z"/>
</g>
<path d="M78.7,26.3L78.7,26.3c0,0.7,0.6,1.2,1.3,1.2l11.8-0.8c0.7,0,1.2-0.7,1.2-1.4l0,0c-0.1-0.7-0.7-1.2-1.3-1.1L79.9,25
	C79.2,25.1,78.7,25.6,78.7,26.3z"/>
<line class="st4" x1="28.1" y1="59.7" x2="163.5" y2="57.4"/>
</svg>
